<svg id="Layer_1" data-name="Layer 1" xmlns="http://www.w3.org/2000/svg" viewBox="0 0 41 210.14"><defs><style>.cls-1{opacity:0.75;}.cls-2{fill:#f6921e;}.cls-3{fill:#ffe461;}.cls-4{fill:#ed7c08;}.cls-5{fill:#fbbb40;}.cls-6{fill:#898989;}.cls-7{fill:#d1d1d1;}.cls-8{fill:#c6c6c6;}.cls-9{fill:#bababa;}.cls-10{fill:#9e9e9e;}.cls-11{fill:#cecece;}.cls-12{fill:#e5e5e5;}.cls-13{fill:#7c86ff;}.cls-14{fill:#fff;}</style></defs><title>edificio3</title><g class="cls-1"><polygon class="cls-2" points="13.91 192.13 13.87 204.62 16.72 202.32 18.57 210.14 20.46 202.34 23.29 204.65 23.33 192.16 26.78 194.97 26.83 176.77 18.64 183.38 10.5 176.72 10.45 194.93 13.91 192.13"/><polygon class="cls-3" points="14.91 189.25 14.88 199.41 17.13 197.54 18.59 203.9 20.08 197.55 22.32 199.43 22.35 189.28 25.07 191.56 25.11 176.76 18.65 182.14 12.22 176.73 12.17 191.53 14.91 189.25"/><ellipse class="cls-2" cx="-988.28" cy="1534.48" rx="6.63" ry="8.17" transform="translate(-1513 -815.9) rotate(-89.84)"/><polygon class="cls-4" points="13.87 204.62 16.72 202.32 18.57 210.14 18.57 210.12 18.65 183.38 18.64 183.38 10.5 176.72 10.45 194.93 13.91 192.13 13.87 204.62"/><polygon class="cls-5" points="14.88 199.41 17.13 197.54 18.59 203.9 18.59 203.87 18.65 182.13 18.65 182.14 12.22 176.73 12.17 191.53 14.91 189.25 14.88 199.41"/><path class="cls-4" d="M-988.3,1541.11h0l0-13.27h0c-4.51,0-8.17,2.95-8.18,6.61S-992.81,1541.1-988.3,1541.11Z" transform="translate(1006.94 -1357.73)"/><polygon class="cls-6" points="7.16 142.34 33.33 142.38 38.09 149.32 18.38 158.15 4.12 155.28 7.16 142.34"/><polygon class="cls-7" points="4.12 155.28 5.24 161.69 18.59 165.02 18.38 158.15 4.12 155.28"/><polygon class="cls-8" points="38.09 149.32 39.13 155.28 18.59 165.02 18.38 158.15 38.09 149.32"/><polygon class="cls-9" points="5.24 161.69 8.45 179.94 18.64 184.94 18.59 165.02 5.24 161.69"/><polygon class="cls-10" points="18.59 165.02 39.13 155.28 28.25 181.37 18.64 184.94 18.59 165.02"/><rect class="cls-11" x="14.94" y="23.43" width="11.13" height="127.53"/><circle class="cls-12" cx="20.5" cy="20.5" r="20.5"/><path class="cls-13" d="M-966.33,1381.55a20.59,20.59,0,0,0,.39-4,20.4,20.4,0,0,0-2.21-9.26c-17.05,3.48-29.88,1.53-36.5-.15a20.4,20.4,0,0,0-2.29,9.41,20.55,20.55,0,0,0,.5,4.5A94,94,0,0,1-966.33,1381.55Z" transform="translate(1006.94 -1357.73)"/><path class="cls-14" d="M-996.65,1369.5l-4.92,11.66q1.22-.23,2.61-0.45l4.62-10.94Q-995.55,1369.65-996.65,1369.5Z" transform="translate(1006.94 -1357.73)"/><path class="cls-14" d="M-990,1370.1l-4.22,10q1.56-.16,3.26-0.28l4.07-9.63Q-988.52,1370.18-990,1370.1Z" transform="translate(1006.94 -1357.73)"/><path class="cls-14" d="M-981.29,1370.08l-4,9.54h1.57l4.07-9.64Z" transform="translate(1006.94 -1357.73)"/><path class="cls-14" d="M-970,1368.76l-4.79,11.35,1.5,0.17,5-11.83Z" transform="translate(1006.94 -1357.73)"/></g></svg>