<svg id="Layer_1" data-name="Layer 1" xmlns="http://www.w3.org/2000/svg" viewBox="0 0 54.62 223.79"><defs><style>.cls-1{opacity:0.75;}.cls-2{fill:#f6921e;}.cls-3{fill:#ffe461;}.cls-4{fill:#ed7c08;}.cls-5{fill:#fbbb40;}.cls-6{fill:#898989;}.cls-7{fill:#d1d1d1;}.cls-8{fill:#c6c6c6;}.cls-9{fill:#bababa;}.cls-10{fill:#9e9e9e;}.cls-11,.cls-12,.cls-15,.cls-16{fill:none;stroke-miterlimit:10;}.cls-11,.cls-12{stroke:#e0e1e2;}.cls-11{stroke-width:5.61px;}.cls-12{stroke-width:2.81px;}.cls-13{fill:#e0e1e2;}.cls-14{fill:#7c86ff;}.cls-15,.cls-16{stroke:#58595b;}.cls-15{stroke-width:0.58px;}.cls-16{stroke-width:0.56px;}</style></defs><title>edificio2</title><g class="cls-1"><polygon class="cls-2" points="22.14 205.63 22.11 218.22 24.97 215.91 26.84 223.79 28.75 215.92 31.6 218.25 31.64 205.66 35.11 208.5 35.16 190.15 26.91 196.82 18.7 190.11 18.65 208.45 22.14 205.63"/><polygon class="cls-3" points="23.15 202.74 23.12 212.97 25.38 211.09 26.86 217.5 28.36 211.1 30.62 212.99 30.65 202.76 33.39 205.06 33.43 190.15 26.92 195.57 20.44 190.11 20.39 205.03 23.15 202.74"/><ellipse class="cls-2" cx="-1103.29" cy="1536.19" rx="6.69" ry="8.23" transform="translate(-1506.11 -917.52) rotate(-89.84)"/><polygon class="cls-4" points="22.11 218.22 24.97 215.91 26.84 223.79 26.84 223.76 26.92 196.81 26.91 196.82 18.7 190.11 18.65 208.45 22.14 205.63 22.11 218.22"/><polygon class="cls-5" points="23.12 212.97 25.38 211.09 26.86 217.5 26.86 217.47 26.93 195.56 26.92 195.57 20.44 190.11 20.39 205.03 23.15 202.74 23.12 212.97"/><path class="cls-4" d="M-1103.3,1542.88h0l0-13.37h0c-4.54,0-8.24,3-8.25,6.66S-1107.85,1542.86-1103.3,1542.88Z" transform="translate(1130.22 -1346.06)"/><polygon class="cls-6" points="15.35 155.46 41.71 155.5 46.51 162.49 26.64 171.39 12.28 168.5 15.35 155.46"/><polygon class="cls-7" points="12.28 168.5 13.41 174.96 26.86 178.31 26.64 171.39 12.28 168.5"/><polygon class="cls-8" points="46.51 162.49 47.56 168.5 26.86 178.31 26.64 171.39 46.51 162.49"/><polygon class="cls-9" points="13.41 174.96 16.64 193.35 26.91 198.39 26.86 178.31 13.41 174.96"/><polygon class="cls-10" points="26.86 178.31 47.56 168.5 36.59 194.79 26.91 198.39 26.86 178.31"/><line class="cls-11" x1="27.79" y1="28.63" x2="27.79" y2="164.01"/><line class="cls-12" x1="0.49" y1="28.63" x2="54.62" y2="28.63"/><path class="cls-13" d="M-1129.11,1357.32l50,0.08a65.79,65.79,0,0,0-23.79-4.43A90.93,90.93,0,0,0-1129.11,1357.32Z" transform="translate(1130.22 -1346.06)"/><path class="cls-14" d="M-1119.69,1373.6l-10-16a446,446,0,0,1,53,0l-8.22,16h-34.7Z" transform="translate(1130.22 -1346.06)"/><line class="cls-15" x1="50.08" y1="23.01" x2="5.21" y2="23.01"/><path class="cls-16" d="M-1125.62,1357.32a176.46,176.46,0,0,1,7.86,16.28" transform="translate(1130.22 -1346.06)"/><path class="cls-16" d="M-1122.06,1357.16s5.72,11.69,6.9,16.44" transform="translate(1130.22 -1346.06)"/><path class="cls-16" d="M-1117.48,1357s3.06,5.71,6,16.61" transform="translate(1130.22 -1346.06)"/><path class="cls-16" d="M-1110.93,1356.83a107.89,107.89,0,0,1,3.7,16.77" transform="translate(1130.22 -1346.06)"/><line class="cls-16" x1="26.22" y1="10.69" x2="26.97" y2="27.54"/><path class="cls-16" d="M-1097.56,1356.83s-0.82,10.92-.82,16.77" transform="translate(1130.22 -1346.06)"/><path class="cls-16" d="M-1090.84,1356.91s-2.88,10.74-3.17,16.69" transform="translate(1130.22 -1346.06)"/><path class="cls-16" d="M-1084.65,1357.16s-3.56,5.82-5.44,16.44" transform="translate(1130.22 -1346.06)"/><path class="cls-16" d="M-1080.59,1357.32s-5.59,9.93-6.44,16.28" transform="translate(1130.22 -1346.06)"/><line class="cls-15" x1="1.11" y1="17.13" x2="53.45" y2="17.13"/><path class="cls-16" d="M-1119.69,1373.6l-10-16a446,446,0,0,1,53,0l-8.22,16h-34.7Z" transform="translate(1130.22 -1346.06)"/><line class="cls-16" x1="27.28" y1="6.91" x2="27.28"/><line class="cls-16" x1="21.52" y1="4.95" x2="33.04" y2="4.95"/><line class="cls-16" x1="24.27" y1="1.75" x2="29.92" y2="1.75"/></g></svg>