<svg id="Layer_1" data-name="Layer 1" xmlns="http://www.w3.org/2000/svg" viewBox="0 0 226.09 516.05"><defs><style>.cls-1{opacity:0.6;}.cls-2{fill:#f6921e;}.cls-3{fill:#ffe461;}.cls-4{fill:#ed7c08;}.cls-5{fill:#fbbb40;}.cls-6{fill:#898989;}.cls-7{fill:#d1d1d1;}.cls-8{fill:#c6c6c6;}.cls-9{fill:#bababa;}.cls-10{fill:#9e9e9e;}.cls-11{fill:#e5e5e5;}.cls-12{fill:#c0b6ea;}.cls-13{fill:#cecece;}.cls-14,.cls-15,.cls-16{fill:none;stroke-miterlimit:10;}.cls-14{stroke:#fffefd;stroke-width:0.62px;}.cls-15{stroke:#58595b;stroke-width:1.84px;}.cls-16{stroke:#939598;stroke-width:2.45px;}.cls-17{fill:#ed1c24;}.cls-18{fill:#ccc;}</style></defs><title>edificio4</title><g class="cls-1"><polygon class="cls-2" points="93.53 479.63 93.45 504.89 99.2 500.24 102.95 516.05 106.78 500.26 112.5 504.94 112.57 479.68 119.54 485.38 119.65 448.57 103.1 461.94 86.63 448.48 86.53 485.29 93.53 479.63"/><polygon class="cls-3" points="95.55 473.82 95.49 494.35 100.03 490.57 102.98 503.43 106.01 490.59 110.53 494.39 110.59 473.86 116.09 478.49 116.17 448.56 103.11 459.43 90.1 448.49 90.02 478.41 95.55 473.82"/><ellipse class="cls-2" cx="-1284.49" cy="1706.73" rx="13.41" ry="16.51" transform="translate(-1599.93 -840.82) rotate(-89.84)"/><polygon class="cls-4" points="93.45 504.89 99.2 500.24 102.95 516.05 102.96 516 103.11 461.93 103.1 461.94 86.63 448.48 86.53 485.29 93.53 479.63 93.45 504.89"/><polygon class="cls-5" points="95.49 494.35 100.03 490.57 102.98 503.43 103 503.37 103.12 459.42 103.11 459.43 90.1 448.49 90.02 478.41 95.55 473.82 95.49 494.35"/><path class="cls-4" d="M-1284.53,1720.14h0l0.08-26.82h0c-9.12,0-16.53,6-16.55,13.37S-1293.65,1720.11-1284.53,1720.14Z" transform="translate(1387.63 -1258.2)"/><polygon class="cls-6" points="79.89 378.97 132.79 379.04 142.41 393.08 102.56 410.93 73.73 405.13 79.89 378.97"/><polygon class="cls-7" points="73.73 405.13 76.01 418.08 103 424.82 102.56 410.93 73.73 405.13"/><polygon class="cls-8" points="142.41 393.08 144.52 405.12 103 424.82 102.56 410.93 142.41 393.08"/><polygon class="cls-9" points="76.01 418.08 82.48 454.99 103.09 465.11 103 424.82 76.01 418.08"/><polygon class="cls-10" points="103 424.82 144.52 405.12 122.51 457.87 103.09 465.11 103 424.82"/><path class="cls-11" d="M-1298.85,1430v223.22h32.49l2.45-223.22,14.1-20.84a430.93,430.93,0,0,0,34.25-34.32s33.17,3.06,54-6.13c0,0,1.84-9.19-36.78-9.19,0,0-28.19-19-59.45-19,0,0-9.19-19,0-33.1,0,0,22.37-.86,32.09-10.58h-83s17.9,12,31.17,12c0,0,.31,20.68-18.52,31.79a145.54,145.54,0,0,0-57.71,16.66s-38.88,1.23-33.33,8.64,50.3,8.33,50.3,8.33l26.85,33.64Z" transform="translate(1387.63 -1258.2)"/><path class="cls-12" d="M-1204,1356.13a137,137,0,0,0-21.8-9.78c-2.28.77-12,3-48.78,3-34,0-45.09-2.67-48.54-4a146.55,146.55,0,0,0-25.68,9.52c7.3,3.08,25.77,6.35,71.22,6.35C-1223.18,1361.18-1207.91,1358.27-1204,1356.13Z" transform="translate(1387.63 -1258.2)"/><path class="cls-13" d="M-1196,1359.37c5.26,2.47,10.39,5.68,4.05,6.64,0,0-37.55,3.44-88.36,3.44-48.95,0-92.6,1.46-74.58-12.24-6.4.28-37.16,2-32.17,8.6,5.55,7.41,50.3,8.33,50.3,8.33s41.38,4.22,121.22.54c0,0,33.17,3.06,54-6.13C-1161.55,1368.56-1159.79,1359.73-1196,1359.37Z" transform="translate(1387.63 -1258.2)"/><line class="cls-14" x1="75.05" y1="89.34" x2="59.24" y2="100.86"/><line class="cls-14" x1="91.16" y1="90.66" x2="87.92" y2="102.43"/><line class="cls-14" x1="115.27" y1="91.11" x2="117.37" y2="102.73"/><line class="cls-14" x1="136.77" y1="90.73" x2="145.52" y2="102.43"/><line class="cls-14" x1="153.02" y1="89.67" x2="166.94" y2="101.15"/><polygon class="cls-12" points="154.14 29.31 150.95 22.33 90.54 22.33 87.54 29.31 154.14 29.31"/><polygon class="cls-12" points="87.1 30.86 82.81 37.75 158.96 37.75 155.28 30.86 87.1 30.86"/><line class="cls-14" x1="93" y1="29.31" x2="96.67" y2="22.33"/><line class="cls-14" x1="104.72" y1="29.92" x2="104.72" y2="22.33"/><line class="cls-14" x1="115.83" y1="29.92" x2="115.83" y2="22.33"/><line class="cls-14" x1="125.83" y1="22.33" x2="125.83" y2="29.92"/><line class="cls-14" x1="136.74" y1="22.33" x2="136.74" y2="29.92"/><line class="cls-14" x1="144.86" y1="22.33" x2="147.66" y2="29.92"/><line class="cls-14" x1="90.54" y1="29.92" x2="85.32" y2="38.39"/><line class="cls-14" x1="98.87" y1="29.92" x2="97.6" y2="38.67"/><line class="cls-14" x1="108.62" y1="29.92" x2="107.8" y2="38.67"/><line class="cls-14" x1="117.49" y1="29.92" x2="117.49" y2="38.67"/><line class="cls-14" x1="128.19" y1="29.92" x2="128.19" y2="38.67"/><line class="cls-14" x1="137.49" y1="29.92" x2="139.96" y2="38.67"/><line class="cls-14" x1="147.66" y1="29.92" x2="150.73" y2="38.67"/><line class="cls-15" x1="157.7" y1="29.92" x2="85.86" y2="29.92"/><path class="cls-11" d="M-1298.64,1281.15h63.93s-12.57-8.9-33.12-8.9S-1298.64,1281.15-1298.64,1281.15Z" transform="translate(1387.63 -1258.2)"/><line class="cls-16" x1="120.96" y1="14.05" x2="120.96" y2="2.6"/><circle class="cls-17" cx="120.96" cy="2.6" r="2.6"/><path class="cls-18" d="M-1225.61,1296.89h-83s2.07,1.39,5.31,3.22h73.56A22.9,22.9,0,0,0-1225.61,1296.89Z" transform="translate(1387.63 -1258.2)"/><path class="cls-18" d="M-1270.78,1431.26v222h4.9l2.45-223.22,14.1-20.84a431.56,431.56,0,0,0,33.94-34C-1225.23,1376.21-1257.84,1383.14-1270.78,1431.26Z" transform="translate(1387.63 -1258.2)"/><line class="cls-15" x1="163.79" y1="38.67" x2="78.46" y2="38.67"/><line class="cls-15" x1="157.7" y1="22.94" x2="85.86" y2="22.94"/></g></svg>