<svg id="Layer_1" data-name="Layer 1" xmlns="http://www.w3.org/2000/svg" viewBox="0 0 115 266.57"><defs><style>.cls-1{opacity:0.75;}.cls-2{fill:#f6921e;}.cls-3{fill:#ffe461;}.cls-4{fill:#ed7c08;}.cls-5{fill:#fbbb40;}.cls-6{fill:#898989;}.cls-7{fill:#d1d1d1;}.cls-8{fill:#c6c6c6;}.cls-9{fill:#bababa;}.cls-10{fill:#9e9e9e;}.cls-11{fill:#ccc;}.cls-12{fill:#58595b;}.cls-13{fill:#c0b6ea;}.cls-14{fill:none;stroke:#c0b6ea;stroke-miterlimit:10;stroke-width:1.78px;}.cls-15{fill:#e5e5e5;}.cls-16{fill:#fff;}</style></defs><title>edificio6</title><g class="cls-1"><polygon class="cls-2" points="52.6 247.34 52.56 260.68 55.6 258.22 57.58 266.57 59.6 258.24 62.62 260.71 62.66 247.37 66.34 250.37 66.4 230.93 57.66 237.99 48.96 230.88 48.9 250.32 52.6 247.34"/><polygon class="cls-3" points="53.67 244.27 53.64 255.11 56.03 253.12 57.59 259.9 59.19 253.13 61.58 255.13 61.61 244.29 64.52 246.73 64.56 230.93 57.66 236.67 50.79 230.89 50.75 246.69 53.67 244.27"/><ellipse class="cls-2" cx="-815.94" cy="1579.19" rx="7.08" ry="8.72" transform="translate(-1519.18 -589.52) rotate(-89.84)"/><polygon class="cls-4" points="52.56 260.68 55.6 258.22 57.58 266.57 57.58 266.55 57.66 237.99 57.66 237.99 48.96 230.88 48.9 250.32 52.6 247.34 52.56 260.68"/><polygon class="cls-5" points="53.64 255.11 56.03 253.12 57.59 259.9 57.6 259.88 57.67 236.66 57.66 236.67 50.79 230.89 50.75 246.69 53.67 244.27 53.64 255.11"/><path class="cls-4" d="M-816,1586.27h0l0-14.17h0c-4.82,0-8.73,3.15-8.74,7.06S-820.78,1586.26-816,1586.27Z" transform="translate(873.62 -1348.28)"/><polygon class="cls-6" points="45.4 194.17 73.34 194.21 78.42 201.63 57.37 211.05 42.15 207.99 45.4 194.17"/><polygon class="cls-7" points="42.15 207.99 43.35 214.83 57.6 218.39 57.37 211.05 42.15 207.99"/><polygon class="cls-8" points="78.42 201.63 79.53 207.99 57.6 218.39 57.37 211.05 78.42 201.63"/><polygon class="cls-9" points="43.35 214.83 46.77 234.32 57.65 239.66 57.6 218.39 43.35 214.83"/><polygon class="cls-10" points="57.6 218.39 79.53 207.99 67.91 235.84 57.65 239.66 57.6 218.39"/><polygon class="cls-11" points="3.36 31.37 13.88 27.37 101.33 27.37 112.06 31.37 3.36 31.37"/><rect class="cls-12" x="15.14" y="25.06" width="84.31" height="2.31"/><path class="cls-13" d="M-857.43,1359.25s15.14,14.09,22.29,14.09,17.87-20.81,17.87-20.81,6.1-10.09,15.77.84,17.66,7.44,17.66,7.44,16,2.23,3.15,8.54c0,0-7.36,4-.42,4h-63.28S-859.53,1366-857.43,1359.25Z" transform="translate(873.62 -1348.28)"/><rect class="cls-11" x="55.29" y="51.13" width="5.55" height="149.97"/><ellipse class="cls-14" cx="57.49" cy="57.63" rx="32.55" ry="1.49"/><ellipse class="cls-14" cx="58.3" cy="71.16" rx="22.58" ry="2.18"/><ellipse class="cls-14" cx="58.41" cy="85.21" rx="14.67" ry="1.78"/><polygon class="cls-15" points="55.29 51.13 60.13 51.13 79.84 44.03 35.43 44.03 55.29 51.13"/><polygon class="cls-15" points="115 31.37 0 31.37 11.95 35.64 103.15 35.64 115 31.37"/><polygon class="cls-13" points="65.53 35.64 60.68 44.03 76.64 44.03 81.49 35.64 65.53 35.64"/><polygon class="cls-13" points="54.1 35.64 49.26 44.03 59.41 44.03 64.26 35.64 54.1 35.64"/><polygon class="cls-13" points="39.41 35.64 34.71 43.77 35.43 44.03 44.71 44.03 49.55 35.64 39.41 35.64"/><polygon class="cls-13" points="11.95 35.64 32.72 43.06 37.01 35.64 11.95 35.64"/><polygon class="cls-13" points="103.15 35.64 82.76 35.64 77.91 44.03 79.84 44.03 103.15 35.64"/><polygon class="cls-16" points="37.01 35.64 32.72 43.06 34.71 43.77 39.41 35.64 37.01 35.64"/><polygon class="cls-16" points="49.55 35.64 44.71 44.03 49.26 44.03 54.1 35.64 49.55 35.64"/><polygon class="cls-16" points="64.26 35.64 59.41 44.03 60.68 44.03 65.53 35.64 64.26 35.64"/><polygon class="cls-16" points="81.49 35.64 76.64 44.03 77.91 44.03 82.76 35.64 81.49 35.64"/></g></svg>