<svg id="Layer_1" data-name="Layer 1" xmlns="http://www.w3.org/2000/svg" viewBox="0 0 97 213.72"><defs><style>.cls-1{opacity:0.55;}.cls-2{fill:#f6921e;}.cls-3{fill:#ffe461;}.cls-4{fill:#ed7c08;}.cls-5{fill:#fbbb40;}.cls-6{fill:#898989;}.cls-7{fill:#d1d1d1;}.cls-8{fill:#c6c6c6;}.cls-9{fill:#bababa;}.cls-10{fill:#9e9e9e;}.cls-11{fill:#e5e5e5;}.cls-12{fill:#cecece;}.cls-13{fill:#c0b6ea;}.cls-14{fill:#fff;}</style></defs><title>edificio5</title><g class="cls-1"><polygon class="cls-2" points="40.25 192.22 40.21 207.13 43.6 204.39 45.81 213.72 48.07 204.4 51.45 207.16 51.49 192.25 55.61 195.62 55.67 173.89 45.9 181.78 36.18 173.84 36.12 195.56 40.25 192.22"/><polygon class="cls-3" points="41.44 188.79 41.41 200.91 44.09 198.68 45.83 206.27 47.62 198.69 50.28 200.94 50.32 188.82 53.57 191.55 53.62 173.88 45.9 180.3 38.23 173.84 38.18 191.5 41.44 188.79"/><ellipse class="cls-2" cx="-594.11" cy="1565.79" rx="7.92" ry="9.74" transform="translate(-1518.17 -424.7) rotate(-89.84)"/><polygon class="cls-4" points="40.21 207.13 43.6 204.39 45.81 213.72 45.82 213.69 45.91 181.77 45.9 181.78 36.18 173.84 36.12 195.56 40.25 192.22 40.21 207.13"/><polygon class="cls-5" points="41.41 200.91 44.09 198.68 45.83 206.27 45.84 206.24 45.91 180.29 45.9 180.3 38.23 173.84 38.18 191.5 41.44 188.79 41.41 200.91"/><path class="cls-4" d="M-594.14,1573.7h0l0-15.83h0c-5.38,0-9.75,3.52-9.77,7.89S-599.52,1573.69-594.14,1573.7Z" transform="translate(640.04 -1391.92)"/><polygon class="cls-6" points="32.2 132.8 63.43 132.85 69.1 141.13 45.58 151.67 28.57 148.25 32.2 132.8"/><polygon class="cls-7" points="28.57 148.25 29.91 155.89 45.84 159.87 45.58 151.67 28.57 148.25"/><polygon class="cls-8" points="69.1 141.13 70.35 148.24 45.84 159.87 45.58 151.67 69.1 141.13"/><polygon class="cls-9" points="29.91 155.89 33.73 177.68 45.89 183.65 45.84 159.87 29.91 155.89"/><polygon class="cls-10" points="45.84 159.87 70.35 148.24 57.36 179.38 45.89 183.65 45.84 159.87"/><rect class="cls-11" x="56.95" y="36.44" width="3.44" height="103.7"/><rect class="cls-11" x="36.61" y="36.44" width="3.44" height="103.7"/><path class="cls-11" d="M-591.54,1428.76c25.22,0,45.93-1.25,48.28-2.85-2.34-1.6-23.06-2.85-48.28-2.85s-45.93,1.25-48.28,2.85C-637.47,1427.51-616.75,1428.76-591.54,1428.76Z" transform="translate(640.04 -1391.92)"/><path class="cls-12" d="M-591.54,1428.76c-25.22,0-45.93-1.25-48.28-2.85a0.41,0.41,0,0,0-.22.3v1.94c0,1.74,21.71,3.15,48.5,3.15s48.5-1.41,48.5-3.15v-1.94a0.41,0.41,0,0,0-.22-0.3C-545.6,1427.51-566.32,1428.76-591.54,1428.76Z" transform="translate(640.04 -1391.92)"/><path class="cls-13" d="M-609,1419.88l-2.9,6.66c2,0.14,4.08.28,6.32,0.4l3.08-7.05H-609Z" transform="translate(640.04 -1391.92)"/><path class="cls-13" d="M-619.38,1419.88l-2.52,5.78c2.34,0.24,5.32.52,8.8,0.79l2.86-6.57h-9.14Z" transform="translate(640.04 -1391.92)"/><path class="cls-13" d="M-627.6,1419.88V1425s1.18,0.16,3.31.41l2.41-5.52h-5.71Z" transform="translate(640.04 -1391.92)"/><path class="cls-13" d="M-601.25,1419.88l-3.1,7.11c7.62,0.38,16.54.57,25.9,0.23l3.2-7.35h-26Z" transform="translate(640.04 -1391.92)"/><path class="cls-13" d="M-572.11,1419.88l-3.15,7.21c4.86-.24,9.8-0.62,14.72-1.19l2.62-6h-14.19Z" transform="translate(640.04 -1391.92)"/><path class="cls-13" d="M-557.22,1425.48q1.67-.23,3.34-0.49v-5.11h-0.9Z" transform="translate(640.04 -1391.92)"/><path class="cls-14" d="M-621.88,1419.88l-2.41,5.52,2.39,0.26,2.52-5.78h-2.5Z" transform="translate(640.04 -1391.92)"/><path class="cls-14" d="M-610.24,1419.88l-2.86,6.57,1.21,0.09,2.9-6.66h-1.25Z" transform="translate(640.04 -1391.92)"/><path class="cls-14" d="M-602.5,1419.88l-3.08,7.05,1.22,0.06,3.1-7.11h-1.25Z" transform="translate(640.04 -1391.92)"/><path class="cls-14" d="M-575.24,1419.88l-3.2,7.35,3.19-.13,3.15-7.21h-3.13Z" transform="translate(640.04 -1391.92)"/><path class="cls-14" d="M-557.91,1419.88l-2.62,6q1.66-.19,3.31-0.42l2.44-5.6h-3.13Z" transform="translate(640.04 -1391.92)"/><path class="cls-11" d="M-591.54,1418.55c25.22,0,45.93-1.25,48.28-2.85-2.34-1.6-23.06-2.85-48.28-2.85s-45.93,1.25-48.28,2.85C-637.47,1417.3-616.75,1418.55-591.54,1418.55Z" transform="translate(640.04 -1391.92)"/><path class="cls-12" d="M-591.54,1418.55c-25.22,0-45.93-1.25-48.28-2.85a0.41,0.41,0,0,0-.22.3v1.94c0,1.74,21.71,3.15,48.5,3.15s48.5-1.41,48.5-3.15V1416a0.41,0.41,0,0,0-.22-0.3C-545.6,1417.3-566.32,1418.55-591.54,1418.55Z" transform="translate(640.04 -1391.92)"/><path class="cls-13" d="M-609,1409.79l-2.9,6.66c2,0.14,4.08.28,6.32,0.4l3.08-7.05H-609Z" transform="translate(640.04 -1391.92)"/><path class="cls-13" d="M-619.38,1409.79l-2.52,5.78c2.34,0.24,5.32.52,8.8,0.79l2.86-6.57h-9.14Z" transform="translate(640.04 -1391.92)"/><path class="cls-13" d="M-627.6,1409.79v5.11s1.18,0.16,3.31.41l2.41-5.52h-5.71Z" transform="translate(640.04 -1391.92)"/><path class="cls-13" d="M-601.25,1409.79l-3.1,7.11c7.62,0.38,16.54.57,25.9,0.23l3.2-7.35h-26Z" transform="translate(640.04 -1391.92)"/><path class="cls-13" d="M-572.11,1409.79l-3.15,7.21c4.86-.24,9.8-0.62,14.72-1.19l2.62-6h-14.19Z" transform="translate(640.04 -1391.92)"/><path class="cls-13" d="M-557.22,1415.38q1.67-.23,3.34-0.49v-5.11h-0.9Z" transform="translate(640.04 -1391.92)"/><path class="cls-14" d="M-621.88,1409.79l-2.41,5.52,2.39,0.26,2.52-5.78h-2.5Z" transform="translate(640.04 -1391.92)"/><path class="cls-14" d="M-610.24,1409.79l-2.86,6.57,1.21,0.09,2.9-6.66h-1.25Z" transform="translate(640.04 -1391.92)"/><path class="cls-14" d="M-602.5,1409.79l-3.08,7.05,1.22,0.06,3.1-7.11h-1.25Z" transform="translate(640.04 -1391.92)"/><path class="cls-14" d="M-575.24,1409.79l-3.2,7.35,3.19-.13,3.15-7.21h-3.13Z" transform="translate(640.04 -1391.92)"/><path class="cls-14" d="M-557.91,1409.79l-2.62,6q1.66-.19,3.31-0.42l2.44-5.6h-3.13Z" transform="translate(640.04 -1391.92)"/><path class="cls-11" d="M-591.54,1408.46c25.22,0,45.93-1.25,48.28-2.85-2.34-1.6-23.06-2.85-48.28-2.85s-45.93,1.25-48.28,2.85C-637.47,1407.21-616.75,1408.46-591.54,1408.46Z" transform="translate(640.04 -1391.92)"/><path class="cls-12" d="M-591.54,1408.46c-25.22,0-45.93-1.25-48.28-2.85a0.41,0.41,0,0,0-.22.3v1.94c0,1.74,21.71,3.15,48.5,3.15s48.5-1.41,48.5-3.15v-1.94a0.41,0.41,0,0,0-.22-0.3C-545.6,1407.21-566.32,1408.46-591.54,1408.46Z" transform="translate(640.04 -1391.92)"/><path class="cls-13" d="M-609,1398.95l-2.9,6.66c2,0.14,4.08.28,6.32,0.4l3.08-7.05H-609Z" transform="translate(640.04 -1391.92)"/><path class="cls-13" d="M-619.38,1398.95l-2.52,5.78c2.34,0.24,5.32.52,8.8,0.79l2.86-6.57h-9.14Z" transform="translate(640.04 -1391.92)"/><path class="cls-13" d="M-627.6,1398.95v5.11s1.18,0.16,3.31.41l2.41-5.52h-5.71Z" transform="translate(640.04 -1391.92)"/><path class="cls-13" d="M-601.25,1398.95l-3.1,7.11c7.62,0.38,16.54.57,25.9,0.23l3.2-7.35h-26Z" transform="translate(640.04 -1391.92)"/><path class="cls-13" d="M-572.11,1398.95l-3.15,7.21c4.86-.24,9.8-0.62,14.72-1.19l2.62-6h-14.19Z" transform="translate(640.04 -1391.92)"/><path class="cls-13" d="M-557.22,1404.55q1.67-.23,3.34-0.49v-5.11h-0.9Z" transform="translate(640.04 -1391.92)"/><path class="cls-14" d="M-621.88,1398.95l-2.41,5.52,2.39,0.26,2.52-5.78h-2.5Z" transform="translate(640.04 -1391.92)"/><path class="cls-14" d="M-610.24,1398.95l-2.86,6.57,1.21,0.09,2.9-6.66h-1.25Z" transform="translate(640.04 -1391.92)"/><path class="cls-14" d="M-602.5,1398.95l-3.08,7.05,1.22,0.06,3.1-7.11h-1.25Z" transform="translate(640.04 -1391.92)"/><path class="cls-14" d="M-575.24,1398.95l-3.2,7.35,3.19-.13,3.15-7.21h-3.13Z" transform="translate(640.04 -1391.92)"/><path class="cls-14" d="M-557.91,1398.95l-2.62,6q1.66-.19,3.31-0.42l2.44-5.6h-3.13Z" transform="translate(640.04 -1391.92)"/><path class="cls-11" d="M-591.54,1397.62c25.22,0,45.93-1.25,48.28-2.85-2.34-1.6-23.06-2.85-48.28-2.85s-45.93,1.25-48.28,2.85C-637.47,1396.37-616.75,1397.62-591.54,1397.62Z" transform="translate(640.04 -1391.92)"/><path class="cls-12" d="M-591.54,1397.62c-25.22,0-45.93-1.25-48.28-2.85a0.41,0.41,0,0,0-.22.3V1397c0,1.74,21.71,3.15,48.5,3.15s48.5-1.41,48.5-3.15v-1.94a0.41,0.41,0,0,0-.22-0.3C-545.6,1396.37-566.32,1397.62-591.54,1397.62Z" transform="translate(640.04 -1391.92)"/></g></svg>