<svg id="Layer_1" data-name="Layer 1" xmlns="http://www.w3.org/2000/svg" viewBox="0 0 223.92 600.31"><defs><style>.cls-1{opacity:0.75;}.cls-2{fill:#f6921e;}.cls-3{fill:#ffe461;}.cls-4{fill:#ed7c08;}.cls-5{fill:#fbbb40;}.cls-6{fill:#898989;}.cls-7{fill:#d1d1d1;}.cls-8{fill:#c6c6c6;}.cls-9{fill:#bababa;}.cls-10{fill:#9e9e9e;}.cls-11{fill:#e5e5e5;}.cls-12{fill:#efefef;}.cls-13{fill:#cecece;}.cls-14{fill:#303030;}.cls-15{fill:#c0b6ea;}.cls-16{fill:#fff;}.cls-17{fill:none;stroke:#21d9f7;stroke-miterlimit:10;}</style></defs><title>edificio1</title><g class="cls-1"><polygon class="cls-2" points="102.23 553.44 102.14 585.94 109.54 579.97 114.35 600.3 119.28 579.99 126.64 586.01 126.74 553.51 135.7 560.84 135.84 513.49 114.55 530.68 93.36 513.37 93.22 560.72 102.23 553.44"/><polygon class="cls-3" points="104.83 545.96 104.75 572.39 110.6 567.53 114.4 584.06 118.29 567.55 124.11 572.44 124.18 546.02 131.26 551.98 131.37 513.47 114.56 527.46 97.83 513.38 97.72 551.88 104.83 545.96"/><ellipse class="cls-2" cx="-1922.91" cy="1646.44" rx="17.26" ry="21.24" transform="translate(-1526.37 -1414.16) rotate(-89.84)"/><polygon class="cls-4" points="102.14 585.94 109.54 579.97 114.35 600.3 114.37 600.24 114.56 530.67 114.55 530.68 93.36 513.37 93.22 560.72 102.23 553.44 102.14 585.94"/><polygon class="cls-5" points="104.75 572.39 110.6 567.53 114.4 584.06 114.41 583.99 114.57 527.44 114.56 527.46 97.83 513.38 97.72 551.88 104.83 545.96 104.75 572.39"/><path class="cls-4" d="M-1923,1663.7h0l0.1-34.51h0c-11.73,0-21.26,7.67-21.29,17.2S-1934.69,1663.66-1923,1663.7Z" transform="translate(2037.51 -1133.01)"/><polygon class="cls-6" points="115.61 419.44 152.75 424.02 165.12 442.09 113.85 465.06 76.77 457.59 115.61 419.44"/><polygon class="cls-7" points="76.77 457.59 79.69 474.26 114.42 482.93 113.85 465.06 76.77 457.59"/><polygon class="cls-8" points="165.12 442.09 167.84 457.58 114.42 482.93 113.85 465.06 165.12 442.09"/><polygon class="cls-9" points="79.69 474.26 88.02 521.74 114.53 534.76 114.42 482.93 79.69 474.26"/><polygon class="cls-10" points="114.42 482.93 167.84 457.58 139.53 525.44 114.53 534.76 114.42 482.93"/><rect class="cls-11" x="107.45" y="312.77" width="28.14" height="134.89"/><polygon class="cls-11" points="107.45 312.77 68.64 150.63 172.69 150.63 135.59 312.77 107.45 312.77"/><ellipse class="cls-12" cx="120.67" cy="145.18" rx="103.25" ry="6.45"/><path class="cls-13" d="M-1871.25,1236.6a42,42,0,0,1,.76-4.66c-26.52-14.14-81.1-6.38-98.13-3.48a56,56,0,0,1,2.37,8.73C-1951.65,1239.26-1916.26,1242.72-1871.25,1236.6Z" transform="translate(2037.51 -1133.01)"/><path class="cls-14" d="M-1870.49,1231.94c1.75-7.9,6-16.35,14.08-24.91H-1981a71.32,71.32,0,0,1,12.4,21.43C-1951.59,1225.56-1897,1217.8-1870.49,1231.94Z" transform="translate(2037.51 -1133.01)"/><path class="cls-13" d="M-1863.9,1266.69a55,55,0,0,1-6.4-15.55c-11.49,2.51-52.41,10.05-95.64,1.07a42.18,42.18,0,0,1-5.34,14.89C-1951.5,1265.45-1905,1262.48-1863.9,1266.69Z" transform="translate(2037.51 -1133.01)"/><path class="cls-15" d="M-1971.28,1267.11a52.46,52.46,0,0,1-7.31,9.66l122.17-.06a55.75,55.75,0,0,1-7.49-10C-1905,1262.48-1951.5,1265.45-1971.28,1267.11Z" transform="translate(2037.51 -1133.01)"/><ellipse class="cls-12" cx="116.73" cy="73.99" rx="84.79" ry="2.86"/><path class="cls-13" d="M-1972.34,1191.7V1133s14.17,31.54,47.17,45C-1925.17,1178-1950,1180.39-1972.34,1191.7Z" transform="translate(2037.51 -1133.01)"/><path class="cls-12" d="M-1973.83,1192.5h-63.68s43.72-.31,48.77,9.55A91.65,91.65,0,0,1-1973.83,1192.5Z" transform="translate(2037.51 -1133.01)"/><path class="cls-15" d="M-1993,1205.5h22.81l9.51-19.23C-1980.77,1194.42-1993,1205.5-1993,1205.5Z" transform="translate(2037.51 -1133.01)"/><path class="cls-15" d="M-1914,1178l-13.64,27.58h26.68l11.59-23.44A103.76,103.76,0,0,0-1914,1178Z" transform="translate(2037.51 -1133.01)"/><path class="cls-15" d="M-1847.41,1205.57s-14-14.08-37.87-22.17l-11,22.15Z" transform="translate(2037.51 -1133.01)"/><path class="cls-15" d="M-1952.17,1183.18l-11,22.33H-1937l13.64-27.58A110.53,110.53,0,0,0-1952.17,1183.18Z" transform="translate(2037.51 -1133.01)"/><path class="cls-16" d="M-1960.69,1186.28l-9.51,19.23h7l11-22.33C-1955.15,1184.14-1958,1185.18-1960.69,1186.28Z" transform="translate(2037.51 -1133.01)"/><path class="cls-16" d="M-1918.72,1177.83c-1.57,0-3.13,0-4.67.11l-13.64,27.58h9.41L-1914,1178C-1915.54,1177.88-1917.12,1177.83-1918.72,1177.83Z" transform="translate(2037.51 -1133.01)"/><path class="cls-16" d="M-1885.28,1183.39c-1.33-.45-2.68-0.88-4.07-1.29l-11.59,23.44h4.7Z" transform="translate(2037.51 -1133.01)"/><path class="cls-15" d="M-1909.89,1239.85l-6.86,16.58c9.74-.21,18.56-1,26-1.88l6.8-16.44C-1893.13,1239-1901.8,1239.59-1909.89,1239.85Z" transform="translate(2037.51 -1133.01)"/><path class="cls-15" d="M-1951.87,1238.81l-6.16,14.88c5.31,0.87,10.57,1.51,15.71,2l6.56-15.84C-1941.76,1239.57-1947.15,1239.21-1951.87,1238.81Z" transform="translate(2037.51 -1133.01)"/><path class="cls-15" d="M-1929.3,1240l-6.67,16.11c4.78,0.28,9.44.4,13.93,0.4l6.83-16.5C-1920.16,1240.08-1924.87,1240.07-1929.3,1240Z" transform="translate(2037.51 -1133.01)"/><path class="cls-15" d="M-1966.25,1237.2a44.88,44.88,0,0,1,.31,15c1.49,0.31,3,.59,4.46.87l6-14.6C-1959.78,1238.05-1963.41,1237.6-1966.25,1237.2Z" transform="translate(2037.51 -1133.01)"/><path class="cls-15" d="M-1870.3,1251.14a43.58,43.58,0,0,1-1-14.54q-5.07.69-10,1.22l-6.78,16.38C-1879.92,1253.11-1873.77,1251.9-1870.3,1251.14Z" transform="translate(2037.51 -1133.01)"/><path class="cls-16" d="M-1955.45,1238.48l-6,14.6q1.74,0.32,3.47.6l6.16-14.88Z" transform="translate(2037.51 -1133.01)"/><path class="cls-16" d="M-1935.76,1239.8l-6.56,15.84c2.14,0.19,4.25.33,6.35,0.45l6.67-16.11C-1931.52,1239.94-1933.68,1239.88-1935.76,1239.8Z" transform="translate(2037.51 -1133.01)"/><path class="cls-16" d="M-1915.2,1240l-6.83,16.5c1.79,0,3.55,0,5.29-.06l6.86-16.58C-1911.69,1239.91-1913.46,1240-1915.2,1240Z" transform="translate(2037.51 -1133.01)"/><path class="cls-16" d="M-1881.22,1237.81l-2.75.29-6.8,16.44,2.78-.36Z" transform="translate(2037.51 -1133.01)"/><line class="cls-17" x1="121.55" y1="447.55" x2="121.55" y2="151.63"/><path class="cls-11" d="M-1901.92,1580.67s-11.06,11.84-28.14,0h28.14Z" transform="translate(2037.51 -1133.01)"/></g></svg>