<svg id="Layer_1" data-name="Layer 1" xmlns="http://www.w3.org/2000/svg" viewBox="0 0 59.21 14.69"><defs><style>.cls-1{fill:#b9ceca;}.cls-2{fill:#4c615e;}.cls-3{fill:#7ae6f4;opacity:0.8;}.cls-4{fill:#75aaa1;}.cls-5{fill:#fff;}</style></defs><title>navecita2</title><path class="cls-1" d="M-25.63,1272.57c6.74-2.78,13.29-1.81,20.74-1.81a13.16,13.16,0,0,1,12.43,7.86,1.31,1.31,0,0,1,.07.34H-10Z" transform="translate(51.6 -1266.84)"/><path class="cls-2" d="M-31.18,1275.75a25.21,25.21,0,0,1,5.55-3.18L-10,1279H7.6c0.22,2.22-6,2.54-6,2.54H-24.5S-40,1282.35-31.18,1275.75Z" transform="translate(51.6 -1266.84)"/><polygon class="cls-2" points="23.5 7.73 21.75 2.71 14.48 2.71 15.91 4.45 18.52 5.22 20.46 9.99 23.5 7.73"/><path class="cls-3" d="M-0.29,1271.5L5.32,1279H3.56l-6-8A13.91,13.91,0,0,1-.29,1271.5Z" transform="translate(51.6 -1266.84)"/><path class="cls-3" d="M-6.28,1270.75L-0.1,1279H-2.89l-6.22-8.27Z" transform="translate(51.6 -1266.84)"/><path class="cls-3" d="M-11.68,1270.62L-5.4,1279H-7l-6.29-8.36Z" transform="translate(51.6 -1266.84)"/><rect class="cls-4" x="-17.91" y="1279.88" width="3.99" height="1.62" transform="translate(19.76 1294.54) rotate(-180)"/><rect class="cls-4" x="-22.75" y="1279.88" width="3.99" height="1.62" transform="translate(10.08 1294.54) rotate(-180)"/><rect class="cls-4" x="-27.6" y="1279.88" width="3.99" height="1.62" transform="translate(0.4 1294.54) rotate(-180)"/><circle class="cls-5" cx="12.49" cy="11.3" r="1.19"/><circle class="cls-5" cx="7.88" cy="5.73" r="3.2"/><circle class="cls-5" cx="1.41" cy="1.41" r="1.41"/></svg>