<svg xmlns="http://www.w3.org/2000/svg" xmlns:xlink="http://www.w3.org/1999/xlink" viewBox="0 0 453.48 422.97"><defs><style>.cls-1,.cls-22,.cls-30{fill:none;}.cls-2{isolation:isolate;}.cls-3{fill:#fff;}.cls-4{fill:#bcbcbc;}.cls-5{clip-path:url(#clip-path);}.cls-6{fill:#f6f5ee;}.cls-13,.cls-6,.cls-8{fill-rule:evenodd;}.cls-7{fill:#1a1b1b;}.cls-16,.cls-8{fill:#242626;}.cls-9{fill:#f6921e;}.cls-10{fill:#ffe461;}.cls-11{fill:#ed7c08;}.cls-12{fill:#fbbb40;}.cls-13,.cls-14{fill:#dbdbdb;}.cls-15{fill:#404041;}.cls-17{fill:#ed1c24;}.cls-18{fill:#eab283;}.cls-19{fill:#ffcc9c;}.cls-20{fill:#821429;}.cls-21{fill:#e82844;}.cls-22{stroke:#eab283;stroke-width:1.54px;}.cls-22,.cls-30{stroke-miterlimit:10;}.cls-23{fill:#271100;}.cls-24{fill:#42210b;}.cls-25,.cls-26{fill:#8b0e04;mix-blend-mode:multiply;}.cls-26{opacity:0.67;}.cls-27{fill:#414042;}.cls-28{fill:#00a79d;}.cls-29{fill:#029b88;}.cls-30{stroke:#414042;stroke-width:0.77px;}.cls-31{fill:#98cbc4;}.cls-32{fill:#8fbcb5;}.cls-33{opacity:0.49;}.cls-34{fill:#178bcc;}.cls-35{fill:#073656;}</style><clipPath id="clip-path" transform="translate(-404.33 -1745.66)"><path class="cls-1" d="M629.64,1997.84c-101.86,0-186.6-19.9-197.62-45.48-0.15,3.16-.23,6.34-0.23,9.54,0,109.43,88.71,198.15,198.15,198.15s198.15-88.71,198.15-198.15q0-5.49-.3-10.9C819.24,1977.23,733.31,1997.84,629.64,1997.84Z"/></clipPath></defs><title>nave_balon</title><g class="cls-2"><g id="Layer_1" data-name="Layer 1"><path class="cls-3" d="M629.67,1996.07c-102.36,0-187.51-20-198.59-45.71-0.15,3.18-.23,6.37-0.23,9.59,0,110,89.15,199.12,199.12,199.12S829.08,2069.92,829.08,1960q0-5.52-.3-11C820.19,1975.36,733.85,1996.07,629.67,1996.07Z" transform="translate(-404.33 -1745.66)"/><ellipse class="cls-4" cx="225.64" cy="199.01" rx="198.82" ry="51.4"/><g class="cls-5"><path class="cls-6" d="M828.1,1953.63c-0.56-13.38-4.23-70.84-46.29-119.24a4.49,4.49,0,0,1-.16.82,199.6,199.6,0,0,0-96.42-62.94l0.58-.4c-37-11.2-80.27-11.64-123.14,3.83,0.17,0.06.39,0.15,0.58,0.2a197,197,0,0,0-89.49,65.44c-0.07-.23-0.16-0.48-0.2-0.71,0,0-45.06,51.63-41.45,128l0.39-.44A196.86,196.86,0,0,0,462,2065.91a5.47,5.47,0,0,1-.78-0.08c31.26,51.72,78.21,77.39,120.7,88.31-0.12-.15-0.2-0.35-0.32-0.5a195.78,195.78,0,0,0,85.47,2.68A199.91,199.91,0,0,0,694.3,2149l-0.23.47c50.69-17.36,84.82-49.14,107.16-87.79-0.24,0-.46.06-0.67,0.1a196.87,196.87,0,0,0,27.1-108.74C827.81,1953.31,828,1953.44,828.1,1953.63Z" transform="translate(-404.33 -1745.66)"/><polygon class="cls-7" points="408.6 262.52 407.31 262.66 400.13 195.27 368.75 104.71 353.08 82.02 354.15 81.28 369.92 104.11 369.95 104.2 401.41 194.98 401.42 195.05 408.6 262.52"/><polygon class="cls-7" points="231.86 378.43 169.56 366.89 169.44 366.81 92.08 312.29 69.48 298.45 70.16 297.34 92.79 311.21 170.08 365.66 230.75 376.9 235.22 341.46 230.63 263.75 226.42 205.66 299.46 211.12 368.23 237.21 368.27 237.24 404.68 257.84 373.83 311.6 373.72 311.68 298.94 365.24 298.18 364.19 372.85 310.7 402.9 258.33 367.68 238.4 299.08 212.37 227.83 207.07 231.93 263.67 236.52 341.5 236.51 341.56 231.86 378.43"/><polygon class="cls-7" points="94.92 240.48 94.82 240.48 54.12 240.51 55.51 198.35 79.28 111.39 94.92 84.83 96.03 85.49 80.49 111.9 56.78 198.62 55.46 239.21 94.71 239.18 170.99 213.91 194.58 209.25 194.83 210.53 171.28 215.18 94.92 240.48"/><path class="cls-7" d="M728.07,1792.53l-17.57,36.19-37.91,53.45-6.2,29.25-64.33-11.91-67.11-80.33,46.33-28.48,89.5-2L723.7,1790l-2.52-1.36-50.4-1.27-89.71,2H580.9L533,1818.86l68.38,81.84,66,12.23,6.41-30.23,37.79-53.28,17.61-36.23Z" transform="translate(-404.33 -1745.66)"/><path class="cls-8" d="M433.62,1975.5s-0.26,38.62,25.21,83.17a158.49,158.49,0,0,0,38-1.25c-1.9-23-4-38,2.37-71.93-13.24-11.84-26.69-24.86-38.68-41.3Z" transform="translate(-404.33 -1745.66)"/><path class="cls-8" d="M581.09,1790c-17.94-9.67-21.36-10.52-23.61-11.22-24.71,10.34-51.23,23.74-79.94,58.42a122.85,122.85,0,0,0,6.68,20.05c23.79-15.25,40.56-20.32,62-24.52C556,1812.94,564.63,1802.56,581.09,1790Z" transform="translate(-404.33 -1745.66)"/><path class="cls-8" d="M776.31,1831a193.9,193.9,0,0,0-86.69-56.23l-18.82,13.32c14.58,8.31,27.78,21.39,40.26,41,24.75,2.9,47.87,11.72,62.61,21C774.1,1846.86,774.41,1837.32,776.31,1831Z" transform="translate(-404.33 -1745.66)"/><path class="cls-8" d="M592.66,1888.8c-7.16,26.56-13.48,47.73-17.21,71.4,13.74,19.73,38.61,38.94,60.16,49.17,28.41-16.62,41.62-25.76,67.95-52a259.78,259.78,0,0,0-30.36-75C653.7,1879.79,617.53,1883.69,592.66,1888.8Z" transform="translate(-404.33 -1745.66)"/><path class="cls-8" d="M574.15,2111.93c2.25,10.28,5.75,25.49,15.46,41.73,36.24,8.81,74.6,3.24,97.5-4.34,6.58-12.75,10.53-24.11,15.79-39-38.29-7.81-62.24-23.46-62.69-23.23C617.31,2101.22,602.31,2106.32,574.15,2111.93Z" transform="translate(-404.33 -1745.66)"/><path class="cls-8" d="M805.1,1940.78c-8.63,15.61-26.59,36.11-32.82,42.68,9.77,31.58,8.83,55.45,5.39,73.35,7.85,1.24,22.63-2.43,25.42-3.46A186.66,186.66,0,0,0,825.87,1962C819.34,1953.4,814.15,1946.43,805.1,1940.78Z" transform="translate(-404.33 -1745.66)"/></g><polygon class="cls-9" points="415.38 372.63 415.28 407.54 421.74 401.12 425.93 422.97 430.25 401.14 436.67 407.6 436.77 372.69 444.59 380.56 444.74 329.68 426.14 348.17 407.66 329.58 407.51 380.45 415.38 372.63"/><polygon class="cls-10" points="417.65 364.59 417.57 392.98 422.67 387.75 425.98 405.52 429.39 387.77 434.46 393.03 434.54 364.64 440.72 371.04 440.83 329.67 426.15 344.7 411.56 329.59 411.44 370.95 417.65 364.59"/><circle class="cls-9" cx="830.53" cy="2075.29" r="18.54" transform="translate(-1651.45 1154.25) rotate(-89.84)"/><polygon class="cls-11" points="415.28 407.54 421.74 401.12 425.93 422.97 425.94 422.89 426.16 348.15 426.14 348.17 407.66 329.58 407.51 380.45 415.38 372.63 415.28 407.54"/><polygon class="cls-12" points="417.57 392.98 422.67 387.75 425.98 405.52 426 405.44 426.17 344.69 426.15 344.7 411.56 329.59 411.44 370.95 417.65 364.59 417.57 392.98"/><path class="cls-11" d="M830.48,2093.83h0l0.11-37.08h0A18.54,18.54,0,1,0,830.48,2093.83Z" transform="translate(-404.33 -1745.66)"/><polygon class="cls-13" points="445.78 347.87 406.27 347.87 398.57 239.59 453.48 239.59 445.78 347.87"/><ellipse class="cls-14" cx="426.04" cy="348.64" rx="20.25" ry="7.44"/><ellipse class="cls-3" cx="426.02" cy="239.59" rx="27.45" ry="11.8"/><path class="cls-15" d="M803.93,1999.7s13.89,6.43,26.43,6.43,26.43-6.43,26.43-6.43l-0.36,5.1s-10.61,5.3-26.06,5.3a57.54,57.54,0,0,1-26.12-6Z" transform="translate(-404.33 -1745.66)"/><path class="cls-15" d="M805,2015.16s13.34,6.43,25.37,6.43,25.37-6.43,25.37-6.43l-0.35,5.1a58.89,58.89,0,0,1-25,5.3,53.54,53.54,0,0,1-25.07-6Z" transform="translate(-404.33 -1745.66)"/><path class="cls-15" d="M808.19,2059.77s11.67,6.43,22.2,6.43,22.2-6.43,22.2-6.43l-0.3,5.1a46.39,46.39,0,0,1-21.89,5.3,42.48,42.48,0,0,1-21.94-6Z" transform="translate(-404.33 -1745.66)"/><path class="cls-15" d="M809.22,2074.06s11.19,6.43,21.29,6.43,21.29-6.43,21.29-6.43l-0.29,5.1a43.13,43.13,0,0,1-21,5.3,39.6,39.6,0,0,1-21-6Z" transform="translate(-404.33 -1745.66)"/><polygon class="cls-9" points="16.81 372.63 16.71 407.54 23.17 401.12 27.36 422.97 31.68 401.14 38.1 407.6 38.2 372.69 46.02 380.56 46.17 329.68 27.58 348.17 9.09 329.58 8.94 380.45 16.81 372.63"/><polygon class="cls-10" points="19.08 364.59 19 392.98 24.11 387.75 27.41 405.52 30.82 387.77 35.89 393.03 35.97 364.64 42.15 371.04 42.27 329.67 27.59 344.7 12.99 329.59 12.87 370.95 19.08 364.59"/><circle class="cls-9" cx="431.96" cy="2075.29" r="18.54" transform="translate(-2048.88 755.69) rotate(-89.84)"/><polygon class="cls-11" points="16.71 407.54 23.17 401.12 27.36 422.97 27.38 422.89 27.59 348.15 27.58 348.17 9.09 329.58 8.94 380.45 16.81 372.63 16.71 407.54"/><polygon class="cls-12" points="19 392.98 24.11 387.75 27.41 405.52 27.43 405.44 27.6 344.69 27.59 344.7 12.99 329.59 12.87 370.95 19.08 364.59 19 392.98"/><path class="cls-11" d="M431.91,2093.83h0l0.11-37.08h0A18.54,18.54,0,1,0,431.91,2093.83Z" transform="translate(-404.33 -1745.66)"/><polygon class="cls-13" points="47.21 347.87 7.7 347.87 0 239.59 54.91 239.59 47.21 347.87"/><ellipse class="cls-14" cx="27.47" cy="348.64" rx="20.25" ry="7.44"/><ellipse class="cls-3" cx="27.45" cy="239.59" rx="27.45" ry="11.8"/><path class="cls-15" d="M405.36,1999.7s13.89,6.43,26.43,6.43,26.43-6.43,26.43-6.43l-0.36,5.1s-10.61,5.3-26.06,5.3a57.54,57.54,0,0,1-26.12-6Z" transform="translate(-404.33 -1745.66)"/><path class="cls-15" d="M406.41,2015.16s13.34,6.43,25.37,6.43,25.37-6.43,25.37-6.43l-0.35,5.1a58.89,58.89,0,0,1-25,5.3,53.54,53.54,0,0,1-25.07-6Z" transform="translate(-404.33 -1745.66)"/><path class="cls-15" d="M409.62,2059.77s11.67,6.43,22.2,6.43,22.2-6.43,22.2-6.43l-0.3,5.1a46.39,46.39,0,0,1-21.89,5.3,42.48,42.48,0,0,1-21.94-6Z" transform="translate(-404.33 -1745.66)"/><path class="cls-15" d="M410.65,2074.06s11.19,6.43,21.29,6.43,21.29-6.43,21.29-6.43l-0.29,5.1a43.13,43.13,0,0,1-21,5.3,39.6,39.6,0,0,1-21-6Z" transform="translate(-404.33 -1745.66)"/><rect class="cls-16" x="172.04" y="168.54" width="6.62" height="23.55"/><circle class="cls-17" cx="175.36" cy="168.54" r="6.62"/><rect class="cls-16" x="272.88" y="168.54" width="6.62" height="23.55"/><circle class="cls-17" cx="276.19" cy="168.54" r="6.62"/><polygon class="cls-18" points="230.48 101.59 227.82 116.39 226.63 120.89 217.42 115.73 215.1 101.59 230.48 101.59"/><circle class="cls-19" cx="223.33" cy="57.27" r="48.02"/><path class="cls-20" d="M599.6,1817.24a0.79,0.79,0,0,1,1.09-1,20.23,20.23,0,0,0,13.56,1.38,28.94,28.94,0,0,0,12.19-6.57,0.79,0.79,0,0,1,1.32.7c-0.67,4.86-3,16.08-10.23,18.62C609.48,1833.2,601.38,1822.14,599.6,1817.24Z" transform="translate(-404.33 -1745.66)"/><path class="cls-3" d="M616,1821.44s6.39-1.7,9.26-6.48v-2.9a28.69,28.69,0,0,1-11.11,5.64,19.46,19.46,0,0,1-13.5-1.45C602.29,1818.69,606.56,1823.61,616,1821.44Z" transform="translate(-404.33 -1745.66)"/><path class="cls-21" d="M617.59,1830.38a11.37,11.37,0,0,0,5.54-4.6,9.23,9.23,0,0,0-7.13-.59c-2.87.78-5.08,2.47-5.92,4.29A9.14,9.14,0,0,0,617.59,1830.38Z" transform="translate(-404.33 -1745.66)"/><path class="cls-22" d="M613.65,1800.09s-9.24-2.1-9.24,3.78,8.57,3.36,8.57,3.36" transform="translate(-404.33 -1745.66)"/><path class="cls-23" d="M603,1751.81c-0.29-.25,2-0.75,3.69.08s0.26-.3.85-3.16c0.13-.66.94,3.27,5.9,3.33h0l-1.54-.34a4.67,4.67,0,0,1-3.21-4.74c0-3.94-2.56,2.15-2,3.7s-1.49-.66-5.43.71c-1.94.67,3.6-.43,2.33,4.52a0.11,0.11,0,0,0,.09.14A3.07,3.07,0,0,0,603,1751.81Z" transform="translate(-404.33 -1745.66)"/><path class="cls-24" d="M669.33,1761.79c-2.44-1.59-7.64-11.13-28.73-15.05s-38.24,6.59-38.24,6.59-14-3.27-18.88,6.34c-0.56,1.12,2.09-1.19,7.59,0,1.58,0.35-5.09.58-7.61,8s2.08,1.44,2.08,1.44-2.63,4.4-2.14,5.59,2.39-.55,2.39-0.55a42,42,0,0,0-1.75,18.15s3.14-21.2,14.13-26.55c3.44-1.68-3.45,5.38-5.1,6s3.66,1.14,8.45-2.36-2.89,2.11,2.52,6.51c0.85,0.69,1.26-3.69,4-5.11s-0.89,1.34-1.14,3.52,5.32-4.43,13.83-7.8,5.54,2,2.85,5.64,3.44,0.09,5.38-1.83,1.15,1.2-.63,3.33,5.68,0.53,8.71-4,2,3.19,3.15,4.95,1.5-5.22,2.75-6.42,1.6,4.43,2.41,5.94,5.08-1.14,6.75-2-0.21,1.91-2.24,3.81,3.24,1.35,5.92-1,1,1.93,2.7,4.79,1.94-3.12,3.82-5.88,3.22,6.91,3.68,9.48,7.07,8.08,3.8,25l3,0.21s12.84-23.89,2.17-41.34a2.69,2.69,0,0,1,.75-3.49c1.19-.83-1.07-1.18-2.88-0.64-0.81.24,0.36-2.26-1.24-4.27C669.24,1755.82,671.77,1763.38,669.33,1761.79Z" transform="translate(-404.33 -1745.66)"/><path class="cls-25" d="M673.78,1771.14s3,5.62,1.29,5.53-6.39-4.44-6.39-4.44,4.79,9.51,1.55,8.8-6.33-7.12-6.33-7.12,4.26,6.17,5.88,6.21-1.76-8.91-1.76-8.91,4.13,3.8,6.07,4.11S673.78,1771.14,673.78,1771.14Z" transform="translate(-404.33 -1745.66)"/><path class="cls-24" d="M612,1751.7a4.67,4.67,0,0,1-3.21-4.74c0-3.94-2.56,2.15-2,3.7s-1.49-.66-5.43.71c-1.94.67,3.6-.43,2.33,4.52a0.11,0.11,0,0,0,.09.14c0.94,0.29,9.19-3.7,9.76-4h0Z" transform="translate(-404.33 -1745.66)"/><path class="cls-26" d="M603,1751.81c-0.29-.25,2-0.75,3.69.08s0.26-.3.85-3.16c0.13-.66.94,3.27,5.9,3.33h0l-1.54-.34a4.67,4.67,0,0,1-3.21-4.74c0-3.94-2.56,2.15-2,3.7s-1.49-.66-5.43.71c-1.94.67,3.6-.43,2.33,4.52a0.11,0.11,0,0,0,.09.14A3.07,3.07,0,0,0,603,1751.81Z" transform="translate(-404.33 -1745.66)"/><path class="cls-27" d="M579.43,1801.06l3.07,1.87s33.89-8.58,60.85-5.4l29.92-9.66-29.84,7.33S623.75,1791.05,579.43,1801.06Z" transform="translate(-404.33 -1745.66)"/><path class="cls-28" d="M581.13,1782.55l-1.7,18.52s40.56-9.8,63.83-5.9l-0.66-16.37C637.11,1777.94,609.6,1774.31,581.13,1782.55Z" transform="translate(-404.33 -1745.66)"/><path class="cls-29" d="M673.27,1787.86l-1.19-3.22L643.6,1779l-1-.17,0.66,16.37,0.17,0Z" transform="translate(-404.33 -1745.66)"/><path class="cls-30" d="M672.56,1785.93l-30.88-.94s-30.92-2.31-61.33,6.07" transform="translate(-404.33 -1745.66)"/><path class="cls-31" d="M595.24,1865.21s-32.46,14.55-25.23,51.23l12.8-3.68s-5.92-21.27,7.46-28.91Z" transform="translate(-404.33 -1745.66)"/><ellipse class="cls-19" cx="172.04" cy="168.79" rx="6.58" ry="7.96"/><path class="cls-31" d="M652.73,1918.62c11.92-15.43,5.31-51,2.92-61.94-4.22-.76-15.73-2.87-22.12-2.31,0,0-5.66,4.83-12.89.22,0,0-14.17,2-25.4,10.61-4.91,3.75-5.76,18.48-4.49,32.63l3.91,34.13C607.67,1937.52,639.22,1936.11,652.73,1918.62Z" transform="translate(-404.33 -1745.66)"/><path class="cls-32" d="M668,1874.8s1.08-8.26-2.55-13.07c-1.95-2.58-5.24-4.22-9.82-5,2.39,10.89,9,46.51-2.92,61.94-13.51,17.49-45.06,18.9-58.07,13.35l0.59,5.14a222.35,222.35,0,0,0,70.08,0S673.12,1898.72,668,1874.8Z" transform="translate(-404.33 -1745.66)"/><g class="cls-33"><path class="cls-29" d="M635.55,1890.45a12.29,12.29,0,0,0,.44-5,3.61,3.61,0,0,0,.2-0.4,0.42,0.42,0,0,0-.37-0.59,10.78,10.78,0,0,0-1.08-3,0.61,0.61,0,0,0-.37-0.62l-0.11-.17a14.09,14.09,0,0,0-7-5.17,10.16,10.16,0,0,0-5.91-.05,0.48,0.48,0,0,0-.41.12h0a11.92,11.92,0,0,0-6.94,5.31,12.37,12.37,0,0,0-.3,11.8A11.75,11.75,0,0,0,623,1899l0.34,0a0.49,0.49,0,0,0,.72,0,12.5,12.5,0,0,0,7.86-3c0.47,0.32.88-.25,0.75-0.7l0.33-.34a11.26,11.26,0,0,0,2.24-3.64A0.63,0.63,0,0,0,635.55,1890.45Zm-0.78-1.46,0,0-0.23.15,0.32-.5Zm-2.61-2.43,0,0h0Zm2.64-1.49-0.65.5,0.61-.72Zm-2.06,2.67-0.09.11-0.06-.08Zm1.75,0L633.7,1889l-0.32-.3h0C633.67,1888.41,634.12,1888,634.5,1887.72Zm-10.69-10.42,0.12-.09a4.14,4.14,0,0,0-.35.61l-0.19-.22Zm1.81,1.08q0.27-.32.52-0.66l0,0,0.91-.47-0.13.11a12.84,12.84,0,0,1-1.4,1.19Zm-1.34.31-0.12-.15,0.28-.1Zm1.27,0.72-0.25.24-0.19-.12A1.09,1.09,0,0,0,625.55,1879.41Zm1.38-.09a0.37,0.37,0,0,0,0,.19,3.71,3.71,0,0,1-.42.18Zm2.63-1.26a0.37,0.37,0,0,0,0-.19l0.16,0.1Zm-3.53-1.68h0a8.54,8.54,0,0,0-.61.75l-0.7.31,0.06-.08a7.24,7.24,0,0,0,.73-0.71,1,1,0,0,0,.14-0.33Zm-8.66,7.77,0.06,0-0.11.09Zm-2.64-2.2-0.1.1,0.06-.13Zm1.7,1.85,0.56-.4-0.11.12Zm0.71-3.79,0.37-.42,0,0.15Zm-1-.25h0.08l-0.56.56Q615.94,1880,616.19,1879.77Zm-1.81,2.84a0.44,0.44,0,0,0,.12.19l-0.3.26C614.25,1882.9,614.31,1882.76,614.38,1882.61Zm-0.54,1.59a0.42,0.42,0,0,0,.22,0l0,0a1.18,1.18,0,0,0,.06.25,0.44,0.44,0,0,0,.07.12,7.6,7.6,0,0,0-.61.6Q613.71,1884.67,613.83,1884.2Zm2.35,0.71,0,0-0.14.06Zm0.89-.42a0.39,0.39,0,0,0,0,.1l-0.13.06Zm-1.66,8.85a0.8,0.8,0,0,0,.74,0l-0.4.49Zm-0.75-1.19,0.05,0,0,0.06Zm3.11,2.67a0.34,0.34,0,0,0-.18-0.09l0.39-.37Q617.86,1894.58,617.76,1894.81Zm-1.46-.39,0.26-.14-0.19.21Zm0.8,0.72a0.37,0.37,0,0,0,0,.07l0,0Zm1.7-2.43a0.72,0.72,0,0,0-.13-0.34,0.76,0.76,0,0,1,.32.24Zm-0.76-.41-0.14.11a0.84,0.84,0,0,0,.09-0.21l0.14,0Zm-3,.52h0.09a0.39,0.39,0,0,0,0,.15Zm14.09,2.23c0,0.31-.13.64-0.16,1l-0.38.17A3.05,3.05,0,0,1,629.14,1895Zm-3.36.82c-0.06.18-.13,0.36-0.2,0.54a3.83,3.83,0,0,1,.12-0.43Zm0.38,1.56q0,0.1,0,.19l-0.1,0Zm1.14-.39c0,0.09,0,.18,0,0.27l-0.08,0Zm1.19-2.45,0.06-.22,0.13,0Zm3.36,0a12.42,12.42,0,0,0-2.28-1c-0.72-.25-2.05-0.75-2.79-0.34a7,7,0,0,0-2,2.19,13.84,13.84,0,0,0-1.36,2.49,10,10,0,0,1-2.67-.53l-0.32-3.27c-0.07-.7,0-1.81-0.61-2.31a4.74,4.74,0,0,0-2.35-.78l-3.56-.65a10.88,10.88,0,0,1-.45-2.94l3.3-1.48a4.65,4.65,0,0,0,2.35-1.65,3.36,3.36,0,0,0,.14-2.44l0.19-.27a0.41,0.41,0,0,0-.4-0.59c-0.25-1-.52-1.94-0.79-2.91a10.77,10.77,0,0,1,1-.57,0.56,0.56,0,0,0,.34-0.07,9.64,9.64,0,0,1,1.42-.63l0.08,0,2,2.2c0.6,0.68,1.3,1.76,2.25,2a3.57,3.57,0,0,0,2.44-.57l3-1.6c0.47,0.37.92,0.77,1.35,1.17a8.8,8.8,0,0,1,1.34,1.61,9.8,9.8,0,0,0-2.39,5.34,3.93,3.93,0,0,0,1.25,2.29,9.45,9.45,0,0,0,2,1.75l0,0.1A10.31,10.31,0,0,1,631.85,1894.54Z" transform="translate(-404.33 -1745.66)"/><path class="cls-29" d="M629.06,1886.17l-2.95-3.93a0.57,0.57,0,0,0-.81-0.11c-1.12-.33-2.16.34-3.08,1s-2.57,1.29-2.73,2.69a9.72,9.72,0,0,0,.39,3.84,3.31,3.31,0,0,0,2.28,2.37,14.57,14.57,0,0,0,1.82.43,3.67,3.67,0,0,0,1.84.19,3.6,3.6,0,0,0,1.38-1.3c0.48-.58.91-1.2,1.34-1.82a5.27,5.27,0,0,0,1-1.82A1.88,1.88,0,0,0,629.06,1886.17Zm-6.42-1.63c0.53-.24,1.07-0.47,1.61-0.7a22.74,22.74,0,0,1-2.59,1.21c-0.62.23-.38,0.12-0.12,0Zm-0.83,3.69,2.08-1.12,0.21-.1-0.65.5-2,1.08Zm3.24-4.81a0.42,0.42,0,0,0,.05-0.16l0.06,0,0.12,0Zm-3.71,2.55a2.93,2.93,0,0,0,.4-0.1l-0.39.21V1886Zm-0.71,1.91,0,0v0h0Zm7-1.37-0.2.12a3.38,3.38,0,0,0,.19-0.36l0-.08,0.21,0.27A0.42,0.42,0,0,0,627.66,1886.51Zm-1.39-2.18-0.23.09,0.18-.16,0.06,0.07h0Zm2.13,3a0.34,0.34,0,0,0-.26.08l-0.07.05a0.4,0.4,0,0,0,0-.28l0.1-.11a0.45,0.45,0,0,0,.09-0.16A0.79,0.79,0,0,1,628.41,1887.38Zm-3,4.17h-0.07l0.94-.85A2,2,0,0,1,625.4,1891.55Z" transform="translate(-404.33 -1745.66)"/></g><path class="cls-32" d="M666.59,1870l1.73,6.34c23.35,13.47,7.29,33.43,7.29,33.43l3.37,1.29c1.85-2.94,4.14-8.18,4.86-16.77C684.76,1883.22,673,1874.11,666.59,1870Z" transform="translate(-404.33 -1745.66)"/><path class="cls-31" d="M663.89,1860.08l2.7,9.91c6.42,4.12,18.16,13.22,17.24,24.3-0.72,8.59-3,13.84-4.86,16.77l8.17,3.14C706,1882.39,663.89,1860.08,663.89,1860.08Z" transform="translate(-404.33 -1745.66)"/><ellipse class="cls-19" cx="277.94" cy="168.79" rx="6.58" ry="7.96"/><polygon class="cls-34" points="424.75 187.43 352.61 191.2 125.93 191.2 27.7 187.43 83.61 207.33 367.27 205.33 424.75 187.43"/><path class="cls-35" d="M432,1954.36v-21.27S498.81,1951,630,1951s199.12-17.9,199.12-17.9l-0.3,17.9s0.12,43.51-194.66,48.84C634.12,1999.83,475.8,2001.7,432,1954.36Z" transform="translate(-404.33 -1745.66)"/></g></g></svg>