<svg id="Layer_1" data-name="Layer 1" xmlns="http://www.w3.org/2000/svg" viewBox="0 0 43.78 10.86"><defs><style>.cls-1{fill:#b9ceca;}.cls-2{fill:#4c615e;}.cls-3{fill:#7ae6f4;opacity:0.8;}.cls-4{fill:#75aaa1;}.cls-5{fill:#fff;}</style></defs><title>navecita1</title><path class="cls-1" d="M-27,1274.91c-5-2.06-9.83-1.34-15.33-1.34a9.73,9.73,0,0,0-9.19,5.81,1,1,0,0,0,0,.25h13Z" transform="translate(51.6 -1270.67)"/><path class="cls-2" d="M-22.92,1277.26a18.64,18.64,0,0,0-4.1-2.35l-11.58,4.73h-13c-0.16,1.64,4.42,1.88,4.42,1.88h19.31S-16.42,1282.13-22.92,1277.26Z" transform="translate(51.6 -1270.67)"/><polygon class="cls-2" points="26.4 5.71 27.7 2 33.07 2 32.01 3.29 30.08 3.86 28.65 7.39 26.4 5.71"/><path class="cls-3" d="M-45.76,1274.11l-4.15,5.52h1.3l4.44-5.9A10.28,10.28,0,0,0-45.76,1274.11Z" transform="translate(51.6 -1270.67)"/><path class="cls-3" d="M-41.33,1273.56l-4.57,6.07h2.06l4.6-6.12Z" transform="translate(51.6 -1270.67)"/><path class="cls-3" d="M-37.34,1273.47l-4.64,6.17h1.17l4.65-6.18Z" transform="translate(51.6 -1270.67)"/><rect class="cls-4" x="15.92" y="9.64" width="2.95" height="1.19"/><rect class="cls-4" x="19.5" y="9.64" width="2.95" height="1.19"/><rect class="cls-4" x="23.08" y="9.64" width="2.95" height="1.19"/><circle class="cls-5" cx="34.54" cy="8.36" r="0.88"/><circle class="cls-5" cx="37.95" cy="4.24" r="2.36"/><circle class="cls-5" cx="42.73" cy="1.04" r="1.04"/></svg>