<svg id="Layer_1" data-name="Layer 1" xmlns="http://www.w3.org/2000/svg" viewBox="0 0 135.73 267.33"><defs><style>.cls-1{fill:#f6921e;}.cls-2{fill:#ffe461;}.cls-3{fill:#ed7c08;}.cls-4{fill:#fbbb40;}.cls-5{fill:#5d2016;}.cls-6{fill:#fecc8d;}.cls-7{fill:#faac73;}.cls-8{fill:#ed1b5b;}.cls-9{fill:#fff;}.cls-10{fill:#f1697c;}.cls-11{fill:#2c5caa;}.cls-12{fill:#f9bd7d;}.cls-13{fill:#848484;}.cls-14{fill:#00a79d;}.cls-15{fill:#414042;}.cls-16{fill:none;stroke:#414042;stroke-miterlimit:10;}</style></defs><title>ninita1</title><polygon class="cls-1" points="102.42 251.53 105.98 262.85 107.41 260.11 111.02 266.76 110.17 259.24 112.92 260.67 109.36 249.35 112.7 251.09 107.51 234.59 103.39 242.5 95.49 238.37 100.68 254.87 102.42 251.53"/><polygon class="cls-2" points="102.33 248.69 105.22 257.9 106.34 255.68 109.24 261.1 108.52 255 110.7 256.18 107.81 246.97 110.47 248.41 106.25 234.99 103.04 241.37 96.75 237.97 100.97 251.39 102.33 248.69"/><circle class="cls-1" cx="-22.86" cy="1922.36" r="6.3" transform="translate(-453.32 -1604.22) rotate(-17.45)"/><polygon class="cls-3" points="105.98 262.85 107.41 260.11 111.02 266.76 111.02 266.73 103.39 242.49 103.39 242.5 95.49 238.37 100.68 254.87 102.42 251.53 105.98 262.85"/><polygon class="cls-4" points="105.22 257.9 106.34 255.68 109.24 261.1 109.24 261.07 103.04 241.36 103.04 241.37 96.75 237.97 100.97 251.39 102.33 248.69 105.22 257.9"/><path class="cls-3" d="M-21,1928.37h0l-3.78-12h0a6.3,6.3,0,0,0-4.12,7.9A6.3,6.3,0,0,0-21,1928.37Z" transform="translate(124.36 -1685.88)"/><polygon class="cls-1" points="47.07 249.84 44.28 261.38 46.92 259.77 46.58 267.33 49.73 260.45 51.35 263.1 54.14 251.56 56.11 254.78 60.18 237.96 52.57 242.61 47.92 235 43.85 251.81 47.07 249.84"/><polygon class="cls-2" points="48.46 247.37 46.19 256.75 48.29 255.42 47.98 261.56 50.51 255.96 51.77 258.1 54.04 248.72 55.58 251.32 58.89 237.65 52.85 241.46 49.21 235.31 45.9 248.98 48.46 247.37"/><circle class="cls-1" cx="-70.31" cy="1922.36" r="6.3" transform="translate(-1797.75 -284.34) rotate(-76.39)"/><polygon class="cls-3" points="44.28 261.38 46.92 259.77 46.58 267.33 46.59 267.3 52.57 242.6 52.57 242.61 47.92 235 43.85 251.81 47.07 249.84 44.28 261.38"/><polygon class="cls-4" points="46.19 256.75 48.29 255.42 47.98 261.56 47.99 261.54 52.85 241.46 52.85 241.46 49.21 235.31 45.9 248.98 48.46 247.37 46.19 256.75"/><path class="cls-3" d="M-71.79,1928.49h0l3-12.25h0a6.3,6.3,0,0,0-7.61,4.64A6.3,6.3,0,0,0-71.79,1928.49Z" transform="translate(124.36 -1685.88)"/><path class="cls-5" d="M-108.5,1709c-1.45,0-20,18.09-11.07,45.36s-2.33,62.27-4.59,66.15c-1.89,3.24,10,6.48,13,6.48,0.54,0,3.24-8.91,5.67-14.58,0,0-1.08,14.31-1.35,16.2,0,0,64.53,14,101.25-4.86l-2.7-15.12s5.67,12.15,6.48,13.23,10-4,11.61-4.86S-2.39,1787.87-4,1762-50.72,1707.14-108.5,1709Z" transform="translate(124.36 -1685.88)"/><path class="cls-6" d="M-5,1772.75c-8.46,18-14.71,27.54-51,27.64-30.28.09-34.83-10.26-39.69-15.66s-0.81-62.37-.81-62.37l13.77-16.74,67-4.32s13.5,23.76,14,24.57S2.42,1757.09-5,1772.75Z" transform="translate(124.36 -1685.88)"/><path class="cls-7" d="M-39.85,1796.78c-28.35,1.62-37.46-6.88-45-16,0,0,7.9,3.64,13.36,2.63,0,0-8.91-4.25-11.95-19.44s14.58-30,21.46-32.8a7.1,7.1,0,0,1-2.83,4.66S-52.2,1737-42.08,1731s13.57-14.17,13.57-14.17,3.85,14,18.63,19a7.28,7.28,0,0,1-1-2.84l-0.2-1.62S-2,1745.25-.54,1751.54c0.76-12.91-.76-25.15-1.1-25.66-0.54-.81-14-24.57-14-24.57L-60,1704.17l-12.64,4.32-23.88,15.63c-0.63,9.56-3.43,55.78.93,60.62,4.86,5.4,9.41,15.75,39.69,15.66,30.11-.09,39.51-6.71,46.69-19.25C-13.78,1786.05-25.54,1796-39.85,1796.78Z" transform="translate(124.36 -1685.88)"/><path class="cls-5" d="M-66.19,1735.39c-0.63-1.24-8.83-.73-9.17,5-0.22,3.64,3.44-1.4,5.37-1.8S-65.44,1736.86-66.19,1735.39Z" transform="translate(124.36 -1685.88)"/><path class="cls-5" d="M-24,1733.81c0.39-1.33,8.54-2.38,9.94,3.15,0.9,3.53-3.65-.73-5.61-0.76S-24.51,1735.4-24,1733.81Z" transform="translate(124.36 -1685.88)"/><path class="cls-7" d="M-43.14,1759.47c2.78-2.47,10.45,3.51,8.33,7.3s-8.62,1.81-9.31-.28S-44.07,1760.29-43.14,1759.47Z" transform="translate(124.36 -1685.88)"/><path class="cls-5" d="M-27.23,1707.41s-7,18.9-31.86,24.84c0,0,8.37-7.56,12.15-12.69,0,0-9.72,6.75-26.73,12.69s-22.41,35.37-4.59,46.71c0,0-13.77-4.32-17-14.58,0,0,.54,22.41,17.55,30.24,0,0-22.68,2.16-32.4-22.41s-10-51.57,1.62-63.18a14.84,14.84,0,0,0-8.64-.27s7-6.21,14.58-5.4c0,0,1.62-10.53,7.56-12.69,0,0-1.08,7.56.54,10.53,0,0,17.55-20,53.73-14.31s49.14,36.45,40.23,64.8c0,0-3.51-22.68-13.23-30.51,0,0,.81,5.94,4,10C-9.68,1731.17-25.34,1724.42-27.23,1707.41Z" transform="translate(124.36 -1685.88)"/><path class="cls-5" d="M-38.19,1781.29c-3.62.43-5.2-2.65-6-1.94s1.79,3.92,5.9,3.38,5.66-2.55,4.85-3.37S-35.57,1781-38.19,1781.29Z" transform="translate(124.36 -1685.88)"/><path class="cls-8" d="M-48.7,1800.16s-33.92-2.06-38.67,14.75c-4.26,15.09-2,60,2.52,64s54.07,6.32,62.19.53,5.49-70.24,3.22-74.78C-22.14,1799.25-34.73,1800.16-48.7,1800.16Z" transform="translate(124.36 -1685.88)"/><path class="cls-9" d="M-46.92,1802.64s10-2.43,23.06,1.39S-7.39,1823.92-7,1825.49s-15.23,5.78-17.13,4.61-2-11.63-8.07-13.13S-46.09,1804-46.92,1802.64Z" transform="translate(124.36 -1685.88)"/><path class="cls-7" d="M-61.11,1798.73s1.62,3.76,1.22,6,14.53,4.54,14.53,4.54l5.94-3.66s2.15-5.05,1.87-6.41S-61.11,1798.73-61.11,1798.73Z" transform="translate(124.36 -1685.88)"/><path class="cls-9" d="M-60.13,1803.15s-5.13-1.76-16.68,3.77c-12.27,5.86-13.5,22-13.69,23.63s15.89,3.57,17.61,2.15,0.33-11.79,6.14-14.14S-60.75,1804.66-60.13,1803.15Z" transform="translate(124.36 -1685.88)"/><path class="cls-9" d="M-57.19,1802.54s1.6,4.51,10.34,5.22,7.48-5.67,7.48-5.67,12.43,0.28,16.4,12.17,4.56,45.14,3.56,48.75c0,0-27.76,16.86-61.61-5.39,0,0,11.45-14.19,10.93-24.34S-85.28,1803.59-57.19,1802.54Z" transform="translate(124.36 -1685.88)"/><path class="cls-10" d="M-65.95,1803.37c2.38,1.92,5.85,31.56-5.64,42.36-2.52,2.37-6.16-1.32-3.36-6.32s1.19-26.16.31-30.86S-69.87,1800.21-65.95,1803.37Z" transform="translate(124.36 -1685.88)"/><path class="cls-10" d="M-30.71,1803c-1.08-2.59,6.48-2.7,10,3,1.84,3,8.83,36.44,2.16,35.37C-22.32,1840.7-21.64,1824.83-30.71,1803Z" transform="translate(124.36 -1685.88)"/><path class="cls-11" d="M-19.41,1863s1.4,22.72,1.4,48c0,0-7,3.51-13.6.77l-12.77-32.87a8.38,8.38,0,0,0-9-.85l-9.1,36.68s-9.19.21-13.11-3.71L-77,1860.1S-55.14,1871.32-19.41,1863Z" transform="translate(124.36 -1685.88)"/><path class="cls-6" d="M-90.51,1830.54L-98,1866.05l11.92,1.72,12.47-34.59C-72.82,1832.31-79,1834-90.51,1830.54Z" transform="translate(124.36 -1685.88)"/><polygon class="cls-6" points="117.39 139.61 130.27 169.3 121.38 174.22 108.62 152.98 108.36 143.28 117.39 139.61"/><rect class="cls-12" x="-101.61" y="1863.52" width="16.31" height="16.31" rx="5.42" ry="5.42" transform="translate(610.34 -1596.38) rotate(15.15)"/><rect class="cls-12" x="-5.94" y="1850.65" width="16.31" height="16.31" rx="5.42" ry="5.42" transform="translate(1735.24 -758.4) rotate(60)"/><path class="cls-13" d="M-61.51,1911.23l-14.17-2.53-1.25,12.06s-11-1.44-11.17,6.33l22.57,3.24Z" transform="translate(124.36 -1685.88)"/><path class="cls-13" d="M-32.1,1910.79l14.17-2.53,1.25,12.06s11-1.44,11.17,6.33l-22.57,3.24Z" transform="translate(124.36 -1685.88)"/><path class="cls-14" d="M-2.49,1742.7s-36.24-10.45-84.74,3.81c0,0-4.2,7.84-.84,19.39,0,0,51.53-11.67,86.16-2.95A26.74,26.74,0,0,0-2.49,1742.7Z" transform="translate(124.36 -1685.88)"/><path class="cls-15" d="M-1.91,1762.95l-3.52,1s-31.66-5.71-79.47,3.32l-3.17-1.33S-35.66,1754.12-1.91,1762.95Z" transform="translate(124.36 -1685.88)"/><path class="cls-16" d="M-0.23,1753.06s-30.82-11.29-89.15,2.85" transform="translate(124.36 -1685.88)"/></svg>