<svg id="Layer_1" data-name="Layer 1" xmlns="http://www.w3.org/2000/svg" viewBox="0 0 59.34 97.19"><defs><style>.cls-1{fill:#dbdbdb;}.cls-2{fill:#ffe461;}.cls-3{fill:#fbbb40;}.cls-4{fill:#b6b7b8;}.cls-5{fill:#fff;}.cls-6{fill:#565759;}.cls-7{fill:#404041;}.cls-8{fill:#e31b23;}.cls-9{fill:#a0121d;}.cls-10{fill:#064a82;}.cls-11{fill:#033659;}.cls-12{fill:#ffcc9c;}.cls-13{fill:#f4c09a;}.cls-14{fill:#42210b;}.cls-15{fill:#00a79d;}.cls-16,.cls-17{fill:none;stroke-miterlimit:10;stroke-width:0.29px;}.cls-16{stroke:#42210b;}.cls-17{stroke:#fff;}</style></defs><title>ninorojo</title><polygon class="cls-1" points="21.43 64.76 16.42 64.76 14.57 71.62 23.28 71.62 21.43 64.76"/><polygon class="cls-2" points="16.55 81.17 16.55 88.91 17.98 87.48 18.92 92.33 19.87 87.48 21.3 88.91 21.3 81.17 23.04 82.91 23.04 71.62 14.81 71.62 14.81 82.91 16.55 81.17"/><polygon class="cls-3" points="18.92 92.33 19.87 87.48 21.3 88.91 21.3 81.17 23.04 82.91 23.04 71.62 18.92 71.62 18.92 92.33"/><polygon class="cls-4" points="18.92 71.62 23.28 71.62 21.43 64.76 18.92 64.76 18.92 71.62"/><path class="cls-5" d="M1508.41,880.06l-5.06-5.24a0.82,0.82,0,0,0-1,0l-5.06,5.24v28.46h11.14V880.06Z" transform="translate(-1483.92 -839.87)"/><rect class="cls-6" x="13.35" y="48.3" width="11.14" height="0.9"/><rect class="cls-6" x="13.35" y="57.4" width="11.14" height="0.9"/><rect class="cls-6" x="13.35" y="40.34" width="11.14" height="0.9"/><path class="cls-1" d="M1508.41,908.52V880.06l-5.06-5.24a0.72,0.72,0,0,0-.51-0.18v33.88h5.57Z" transform="translate(-1483.92 -839.87)"/><rect class="cls-7" x="18.92" y="57.4" width="5.57" height="0.9"/><rect class="cls-7" x="18.92" y="48.3" width="5.57" height="0.9"/><rect class="cls-7" x="18.92" y="40.34" width="5.57" height="0.9"/><path class="cls-8" d="M1532.68,902.74c-2.41-4.3-4.92-7.59-6.52-15.54s-8-15.34-8-15.34l-15.3,4.63,0.44,8.21s0.54,3.74,1.26,8.86a39.82,39.82,0,0,1-.81,13.1c-0.6,3.11,3.23,7.09,4.71,9.72s1.52,5.31,1.82,8,5.91,12.54,10.53,12.65,6.83-2.39,6.83-2.39c-2.81-2-4.1-6-4.1-6s8.36-3.49,12.29-9.1S1535.09,907,1532.68,902.74Zm-11.14,17.68a67.86,67.86,0,0,1-.64-8.59c0-.4.23-0.54,0.51-0.49,1.17,0.2,3.9,3.61,3.91,4.47C1525.33,916.88,1521.93,920.51,1521.55,920.42Z" transform="translate(-1483.92 -839.87)"/><path class="cls-9" d="M1528.06,916.75c1.29-3.64-3.39-9-3.39-9a10,10,0,0,1-3.49,3.62,0.46,0.46,0,0,1,.23,0c1.17,0.2,3.9,3.61,3.91,4.47s-2.52,3.75-3.46,4.45l-0.48,1.65,1.54,0.5S1526.77,920.39,1528.06,916.75Z" transform="translate(-1483.92 -839.87)"/><polygon class="cls-9" points="37.12 71.57 37.12 71.58 37.13 71.57 37.12 71.57"/><path class="cls-9" d="M1512.77,916.37c-1-1.26-3.66-4-3.66-4l3.23,2.25a14.77,14.77,0,0,1-3-6.47c-0.75-3.91,2.53-9,2.53-9l-7-2.38a46.21,46.21,0,0,1-1.06,9.88c-0.6,3.11,3.23,7.09,4.71,9.72s1.52,5.31,1.82,8a10.55,10.55,0,0,0,1,2.91l4-.25s-1.27-5.58-1.26-5.73S1513.78,917.63,1512.77,916.37Z" transform="translate(-1483.92 -839.87)"/><path class="cls-10" d="M1533.89,921.79c-3.71-1.05-7.54-4.24-8.78-5.33-0.75,1.45-3.23,4-3.56,4l-0.07-.6s-4.08,5.65-4.2,5.72a58.59,58.59,0,0,0,4.59,4.36l2-.51c-0.19-.47-0.28-0.76-0.28-0.76A36.64,36.64,0,0,0,1533.89,921.79Z" transform="translate(-1483.92 -839.87)"/><path class="cls-11" d="M1525.11,916.46c-0.75,1.45-3.23,4-3.56,4l-0.07-.6-1.84,2.54c0,0.27,0,.45,0,0.45l1.84,0.61,5.85-5.16C1526.34,917.52,1525.56,916.86,1525.11,916.46Z" transform="translate(-1483.92 -839.87)"/><path class="cls-11" d="M1522.55,919.65h0a2.67,2.67,0,0,1-1,.77l-0.07-.6s-2.14,3-3.37,4.62a15.59,15.59,0,0,1,.19,2.18c1.33,1.3,3.49,3.3,3.56,3.28l2-.51c-0.19-.47-0.28-0.76-0.28-0.76l0.76-.34C1523.38,926.75,1522.55,919.65,1522.55,919.65Z" transform="translate(-1483.92 -839.87)"/><path class="cls-10" d="M1521.48,919.82a9.17,9.17,0,0,1-5.23,2.27,23.66,23.66,0,0,1-6.25-.3c0.1,0.87.17,1.74,0.27,2.62,0.3,2.74,5.91,12.54,10.53,12.65s6.83-2.39,6.83-2.39c-2.81-2-4.1-6-4.1-6s-1-3.54-2-8.21Z" transform="translate(-1483.92 -839.87)"/><path class="cls-11" d="M1517.76,932.81c-2.59-3-3.55-10.53-3.55-10.53a0.75,0.75,0,0,0,0-.11,24.27,24.27,0,0,1-4.18-.38c0.1,0.87.17,1.74,0.27,2.62,0.3,2.74,5.91,12.54,10.53,12.65a10.64,10.64,0,0,0,4.1-.68C1521.53,937.08,1520.35,935.83,1517.76,932.81Z" transform="translate(-1483.92 -839.87)"/><rect class="cls-12" x="1534.68" y="850.59" width="8.58" height="8.58" rx="4.29" ry="4.29" transform="translate(1239.17 1317.74) rotate(-161.32)"/><rect class="cls-13" x="1533.5" y="852.46" width="3.57" height="3.57" rx="0.81" ry="0.81" transform="translate(830.24 1589.25) rotate(-145.41)"/><circle class="cls-12" cx="1505.77" cy="859.76" r="17.6" transform="translate(-1712.08 19.25) rotate(-29.7)"/><path class="cls-14" d="M1508,841.5a25.92,25.92,0,0,0-12.33,1.47c-6,2.46-7,1.72-6.86.45s-2.28,1-1.11,2.8c0.14,0.22-2.09-.08-2.84,1.06s0.12,0.42,1,.66-1,.63-1.27,1.5,0.71,0.63,1.11.67-0.51.32-.55,1.16,0.8-.73,3-0.93-3,2.22-4,5.12,0.69,0.35,1.27.28-0.17,1.4.56,0.86,1.22-1.34.82-.09,0.37,2.22.63,1.51c0.71-2-.33,1.83,1.39,5.38,0.28,0.57,1-4.14,3.08-6.13s0,0.12-.09,1.4,3-3.4,7.15-4.78c1.42-.47-0.91.68-1.47,1.48s5.21-1.81,7.71-3.88,0.3,2-.24,2.6,4.15-1.63,4.71-2.42-0.52,1.28-.45,1.77,2.51-2.27,2.9-2.92,1.37,2.52,3.48,4.16c0.41,0.32.24-1.27-.07-2.27s1,0.66,1.62,1.69,0.76-.33.47-1.13,5.58,3.37,5.65,8.27c0,1.86.81-7-2.28-10.7-0.4-.48.71-0.22,1.08,0.14s0.34-.61-1.58-2.13-0.39-1-.09-1.58-0.06-.17-0.66-0.3,0.81,0,1.12-1.19-0.73.86-3.7-1-4.6-2.57-5.15-3.23-0.42.2-1.06,0.51-0.14-1.1-1-1.79-0.35,1.1-.55,1.52-0.26-.63-0.65-0.83S1508.6,841.47,1508,841.5Z" transform="translate(-1483.92 -839.87)"/><path class="cls-15" d="M1488.94,864.91s5.12-5.25,15.16-6.24,14.81-.56,19.27.67a19.46,19.46,0,0,1-.42,4.27c-0.46,1.65-15-3.85-32.64,4.55Z" transform="translate(-1483.92 -839.87)"/><path class="cls-16" d="M1511.05,867s-2.24,3.31-5.83,2.62" transform="translate(-1483.92 -839.87)"/><path class="cls-17" d="M1489.6,866.49s11.33-9.29,33.65-4.78" transform="translate(-1483.92 -839.87)"/><polygon class="cls-12" points="53.41 15.01 41.82 27.06 46.09 31.57 56.46 18.39 53.41 15.01"/><path class="cls-9" d="M1519.43,873.48a55.44,55.44,0,0,1,4.09,6.51l6.48-8.55-4.27-4.51Z" transform="translate(-1483.92 -839.87)"/><path class="cls-9" d="M1503.28,884.69l-0.44-5.95a26.06,26.06,0,0,0-6.7,8.29l4.52,1.7A27.78,27.78,0,0,1,1503.28,884.69Z" transform="translate(-1483.92 -839.87)"/><path class="cls-13" d="M1496.15,887a32.75,32.75,0,0,0-3.74,16.38h4.86a29.18,29.18,0,0,1,3.4-14.68Z" transform="translate(-1483.92 -839.87)"/><path class="cls-5" d="M1502.84,878.74s8.69,6.27,1.69,14.81l0.18,1.68s6.35-1.43,4.76-9.71-6.59-8.4-6.59-8.4Z" transform="translate(-1483.92 -839.87)"/><path class="cls-5" d="M1518.29,872.13s-2.07,11.81,7.87,15.07l-0.76-2.81s-5.75-5-5.31-10Z" transform="translate(-1483.92 -839.87)"/><rect class="cls-12" x="1491.2" y="901.43" width="7.33" height="7.33" rx="3.66" ry="3.66" transform="translate(-1359.87 -1018.6) rotate(7.14)"/><rect class="cls-13" x="1496.52" y="903.48" width="3.05" height="3.05" rx="0.81" ry="0.81" transform="translate(-1009.93 -1354.19) rotate(23.05)"/></svg>