<svg id="Layer_1" data-name="Layer 1" xmlns="http://www.w3.org/2000/svg" viewBox="0 0 63 118.29"><defs><style>.cls-1{fill:#ffe461;}.cls-2,.cls-3{fill:#231f20;}.cls-10,.cls-2,.cls-5,.cls-6,.cls-8{fill-rule:evenodd;}.cls-4{fill:#00aeef;}.cls-5,.cls-9{fill:#ccc;}.cls-11,.cls-6{fill:#007bb3;}.cls-10,.cls-7{fill:#ed1c24;}.cls-8{fill:#bcbec0;}</style></defs><title>robot1</title><polygon class="cls-1" points="34.81 100.96 37.45 110.84 38.85 108.52 41.74 114.37 41.34 107.85 43.71 109.18 41.08 99.29 43.97 100.9 40.13 86.5 29.27 89.39 33.11 103.79 34.81 100.96"/><path class="cls-2" d="M-718.06,745.13A6.84,6.84,0,0,0-712.9,737a6.84,6.84,0,0,0-8.53-4.5,6.84,6.84,0,0,0-5.16,8.15A6.84,6.84,0,0,0-718.06,745.13Z" transform="translate(735.3 -664.95)"/><path class="cls-3" d="M-718,745.47a7.19,7.19,0,0,1-9-4.75,7.19,7.19,0,0,1,5.41-8.58,7.19,7.19,0,0,1,9,4.75,7.19,7.19,0,0,1-5.41,8.58h0Zm-3.37-12.64a6.48,6.48,0,0,0-4.91,7.71,6.48,6.48,0,0,0,8.09,4.25,6.48,6.48,0,0,0,4.91-7.71,6.48,6.48,0,0,0-8.1-4.25h0Z" transform="translate(735.3 -664.95)"/><rect class="cls-4" x="-719.65" y="674.93" width="1.92" height="25.21" transform="translate(534.09 -826.79) rotate(-14.92)"/><path class="cls-5" d="M-707.75,728.6a17.32,17.32,0,0,0,12.26-21.16,17.32,17.32,0,0,0-21.16-12.26,17.32,17.32,0,0,0-12.26,21.16A17.32,17.32,0,0,0-707.75,728.6Z" transform="translate(735.3 -664.95)"/><path class="cls-2" d="M-725.21,708.28a36.25,36.25,0,0,1,22.5-6l2.22,8.35c-9.71,12.73-12.55,7.86-22.5,6Z" transform="translate(735.3 -664.95)"/><path class="cls-6" d="M-726.79,721.93c1.09-.29,1.23-3.31.32-6.73s-2.54-6-3.62-5.68-1.23,3.31-.32,6.73S-727.87,722.22-726.79,721.93Z" transform="translate(735.3 -664.95)"/><path class="cls-6" d="M-694.54,713.34c1.09-.29,1.23-3.31.32-6.73s-2.54-6-3.62-5.68-1.23,3.31-.32,6.73S-695.63,713.63-694.54,713.34Z" transform="translate(735.3 -664.95)"/><circle class="cls-7" cx="-721.93" cy="675.36" r="2.28" transform="translate(537.11 -828.03) rotate(-14.92)"/><path class="cls-5" d="M-721.54,733.27c2.69-2.39,8.49-2.29,14.56-2.93,5.59-2.46,10.57-5.43,14.09-4.7,5.76,1.5,3.05,11.89,1.69,21.75-8.87-3.31-16.41,1.67-20.8,5.85C-718.11,745.27-725.83,737.48-721.54,733.27Z" transform="translate(735.3 -664.95)"/><path class="cls-8" d="M-718.52,717.72c-0.81-3.22-2.54-8-3.72-11.2q-0.91.49-1.8,1c1,2.78,2.4,6.6,3.23,9.56C-720,717.31-719.25,717.52-718.52,717.72Z" transform="translate(735.3 -664.95)"/><path class="cls-8" d="M-717.36,718.07c-0.86-3.48-2.83-8.88-4-12l-0.55.28a120.61,120.61,0,0,1,3.81,11.5Z" transform="translate(735.3 -664.95)"/><path class="cls-8" d="M-702.68,713.35c-1.17-3.76-3.11-8.59-4.14-11.1-0.48,0-1,.05-1.42.09,1.07,2.59,3.33,8.21,4.5,12.19Q-703.23,714-702.68,713.35Z" transform="translate(735.3 -664.95)"/><path class="cls-2" d="M-689.47,737.52a6.84,6.84,0,0,0,5.16-8.14,6.84,6.84,0,0,0-8.53-4.5A6.84,6.84,0,0,0-698,733,6.84,6.84,0,0,0-689.47,737.52Z" transform="translate(735.3 -664.95)"/><path class="cls-3" d="M-689.38,737.86a7.19,7.19,0,0,1-9-4.75,7.19,7.19,0,0,1,5.41-8.58,7.19,7.19,0,0,1,9,4.75,7.19,7.19,0,0,1-5.41,8.58h0Zm-3.37-12.64a6.48,6.48,0,0,0-4.91,7.71,6.48,6.48,0,0,0,8.09,4.25,6.48,6.48,0,0,0,4.91-7.71,6.48,6.48,0,0,0-8.09-4.25h0Z" transform="translate(735.3 -664.95)"/><path class="cls-5" d="M-686.06,729.78l9.14,1.67-0.26,1.81-8.84-1A1.76,1.76,0,0,1-686.06,729.78Z" transform="translate(735.3 -664.95)"/><circle class="cls-3" cx="-676.42" cy="732.42" r="1.92" transform="translate(523.96 -814.39) rotate(-14.92)"/><path class="cls-5" d="M-675.51,732.56l0.52,9.18-1.4.12-0.73-9.11Q-676.26,731.71-675.51,732.56Z" transform="translate(735.3 -664.95)"/><ellipse class="cls-3" cx="-675.72" cy="744.01" rx="2.67" ry="2.97" transform="translate(521 -813.82) rotate(-14.92)"/><ellipse class="cls-9" cx="-680.49" cy="744.19" rx="1.32" ry="0.72" transform="translate(520.79 -815.04) rotate(-14.92)"/><ellipse class="cls-9" cx="-677.63" cy="748.19" rx="1.38" ry="0.6" transform="translate(-406.59 -813.1) rotate(-69.55)"/><ellipse class="cls-9" cx="-674.48" cy="748.99" rx="0.6" ry="1.38" transform="translate(628.86 -748.57) rotate(-7.7)"/><path class="cls-5" d="M-724.86,740.11l-7.1,6,1.13,1.44,7.17-5.27A1.76,1.76,0,0,0-724.86,740.11Z" transform="translate(735.3 -664.95)"/><circle class="cls-3" cx="-731.92" cy="747.21" r="1.92" transform="translate(518.28 -828.18) rotate(-14.92)"/><path class="cls-5" d="M-732.64,747.77l4.12,8.22,1.27-.59-3.9-8.27Q-732.41,746.67-732.64,747.77Z" transform="translate(735.3 -664.95)"/><ellipse class="cls-3" cx="-726.75" cy="757.61" rx="2.67" ry="2.97" transform="matrix(0.97, -0.26, 0.26, 0.97, 515.78, -826.5)"/><ellipse class="cls-9" cx="-722.53" cy="755.39" rx="1.32" ry="0.72" transform="translate(516.49 -825.49) rotate(-14.92)"/><ellipse class="cls-9" cx="-723.02" cy="760.28" rx="0.6" ry="1.38" transform="translate(-110.59 -946.64) rotate(-50.29)"/><ellipse class="cls-9" cx="-725.35" cy="762.54" rx="0.6" ry="1.38" transform="translate(394.52 -882.05) rotate(-22.14)"/><path class="cls-10" d="M-692.08,747.07c-7.76-2.44-14.44,1.36-18.77,5.12a9.75,9.75,0,0,0,11.8,6.51A9.75,9.75,0,0,0-692.08,747.07Z" transform="translate(735.3 -664.95)"/><path class="cls-5" d="M-706.61,753.82l-12.78,12.91,2,1.46,12.62-11.62C-704.45,754.52-705.36,754-706.61,753.82Z" transform="translate(735.3 -664.95)"/><ellipse class="cls-3" cx="-718.39" cy="767.46" rx="1.5" ry="2.04" transform="translate(513.52 -824.02) rotate(-14.92)"/><path class="cls-5" d="M-717.3,768.5l2.38,14.74-4.59-15.69A1.41,1.41,0,0,1-717.3,768.5Z" transform="translate(735.3 -664.95)"/><path class="cls-5" d="M-694.15,750.5l17.5,4.84-1,2.26-16.73-3.8C-695.68,752.18-695.16,751.25-694.15,750.5Z" transform="translate(735.3 -664.95)"/><ellipse class="cls-3" cx="-677.15" cy="756.47" rx="1.5" ry="2.04" transform="translate(517.74 -813.77) rotate(-14.92)"/><path class="cls-5" d="M-677.57,757.92l5.27,14-3.83-15.9A1.41,1.41,0,0,0-677.57,757.92Z" transform="translate(735.3 -664.95)"/><circle class="cls-11" cx="-713.14" cy="739.66" r="3" transform="translate(520.86 -823.6) rotate(-14.92)"/><circle class="cls-7" cx="-713.14" cy="739.66" r="2.16" transform="matrix(0.97, -0.26, 0.26, 0.97, 520.86, -823.6)"/><polygon class="cls-7" points="9.6 12.38 0 9.48 0.15 8.98 9.74 11.89 9.6 12.38"/><polygon class="cls-7" points="10.64 6.97 7.94 1.98 8.4 1.73 11.1 6.72 10.64 6.97"/><rect class="cls-7" x="-723.12" y="667.88" width="6.63" height="0.52" transform="translate(-358.23 -905.03) rotate(-69.5)"/><rect class="cls-7" x="-718.79" y="672.74" width="7.25" height="0.52" transform="translate(110.02 -969.86) rotate(-41.49)"/></svg>