<svg id="Layer_1" data-name="Layer 1" xmlns="http://www.w3.org/2000/svg" viewBox="0 0 160.74 157.49"><defs><style>.cls-1{fill:#ffe461;}.cls-2{fill:#414042;}.cls-3,.cls-4{fill:#fff;}.cls-3,.cls-4,.cls-6{stroke:#fff;}.cls-3,.cls-4,.cls-5,.cls-6,.cls-8{stroke-miterlimit:10;}.cls-3{stroke-width:0.35px;}.cls-4,.cls-6{stroke-width:0.35px;}.cls-5,.cls-6,.cls-8{fill:none;}.cls-5{stroke:#00f9ec;stroke-width:0.69px;}.cls-7{fill:#5e5d5e;}.cls-8{stroke:#f4e91c;stroke-linecap:round;stroke-width:1.74px;}</style></defs><title>sol</title><ellipse class="cls-1" cx="79.8" cy="78.24" rx="48.44" ry="47.46"/><path class="cls-2" d="M581.48-493.93s31.39,11,85.69,2.15c0,0,3.2,5.22,3.2,8.14,0,0-49.28,17.56-93.26,0A45.49,45.49,0,0,1,581.48-493.93Z" transform="translate(-543.94 548.97)"/><path class="cls-2" d="M613.39-465.57a49.35,49.35,0,0,1-7.55.35c-0.2,1.19-1,2-1.85,1.94a1.89,1.89,0,0,1-1.28-2.14c-0.93-.09-1.84-0.2-2.72-0.34-0.31,1.2-1.23,2-2.07,1.81s-1.24-1.25-1-2.4a45.3,45.3,0,0,1-7.46-2.38l0,0.1c-0.54,1.13-1.61,1.76-2.4,1.4s-1-1.57-.45-2.7l0.06-.11-1.17-.61-0.08.18c-0.54,1.13-1.61,1.76-2.4,1.4s-1-1.57-.45-2.7a3.27,3.27,0,0,1,.28-0.48c-1-.64-1.47-1.06-1.47-1.06s-1.46-.59-2.25,1.55,1.45,3.64,1.45,3.64c13.72,8.73,29.94,8,29.94,8s4.62,0.43,4.62-2.29S613.39-465.57,613.39-465.57Z" transform="translate(-543.94 548.97)"/><path class="cls-3" d="M582.92-468.94c0.8,0.37,1.89-.27,2.43-1.43l0.08-.19c-1.11-.61-2-1.17-2.68-1.63a3.33,3.33,0,0,0-.29.49C581.92-470.54,582.12-469.3,582.92-468.94Z" transform="translate(-543.94 548.97)"/><path class="cls-4" d="M586.92-467.12c0.79,0.36,1.86-.27,2.4-1.4l0-.1c-1-.43-2-0.88-2.84-1.31l-0.06.11C585.94-468.68,586.14-467.47,586.92-467.12Z" transform="translate(-543.94 548.97)"/><path class="cls-4" d="M597.82-463.79c0.84,0.2,1.76-.61,2.07-1.81-1.07-.17-2.09-0.37-3.08-0.59C596.58-465,597-464,597.82-463.79Z" transform="translate(-543.94 548.97)"/><path class="cls-4" d="M604-463.12c0.84,0.11,1.65-.75,1.85-1.94q-1.61,0-3.12-.2A1.89,1.89,0,0,0,604-463.12Z" transform="translate(-543.94 548.97)"/><path class="cls-5" d="M619.77-482c-26.92.46-40.85-6.74-40.85-6.74" transform="translate(-543.94 548.97)"/><path class="cls-6" d="M669.21-487.85s-11.59,3.71-42.83,5.6Q623-482,619.77-482" transform="translate(-543.94 548.97)"/><path class="cls-7" d="M581.48-493.93l4-.22s19.54,3.53,37,3.86c20.39,0.39,43.73-3.37,43.73-3.37l1,1.88a259.37,259.37,0,0,1-44.56,3.4C600.06-488.66,586.32-492.33,581.48-493.93Z" transform="translate(-543.94 548.97)"/><path class="cls-8" d="M619.77-548.1s-1.9,8.58,0,12.5c2.42,5,4,14,4,14" transform="translate(-543.94 548.97)"/><path class="cls-8" d="M580.63-535.44s2.74,8.36,6.38,10.82c4.63,3.13,10.58,10.16,10.58,10.16" transform="translate(-543.94 548.97)"/><path class="cls-8" d="M553.19-505.31s6.64,5.9,11,6.25c5.61,0.44,14.35,3.62,14.35,3.62" transform="translate(-543.94 548.97)"/><path class="cls-8" d="M544.81-465.78s8.76,1.86,12.76,0c5.08-2.37,14.27-3.89,14.27-3.89" transform="translate(-543.94 548.97)"/><path class="cls-8" d="M557.73-427.43s8.54-2.68,11-6.25C572-438.22,579.15-444,579.15-444" transform="translate(-543.94 548.97)"/><path class="cls-8" d="M588.49-400.56s6-6.5,6.38-10.82c0.45-5.5,3.69-14.05,3.69-14.05" transform="translate(-543.94 548.97)"/><path class="cls-8" d="M628.85-392.35s1.9-8.58,0-12.5c-2.42-5-4-14-4-14" transform="translate(-543.94 548.97)"/><path class="cls-8" d="M668-405s-2.74-8.36-6.38-10.82C657-419,651-426,651-426" transform="translate(-543.94 548.97)"/><path class="cls-8" d="M695.43-435.14s-6.64-5.9-11-6.25C678.77-441.82,670-445,670-445" transform="translate(-543.94 548.97)"/><path class="cls-8" d="M703.81-474.67s-8.76-1.86-12.76,0c-5.08,2.37-14.27,3.89-14.27,3.89" transform="translate(-543.94 548.97)"/><path class="cls-8" d="M690.89-513s-8.54,2.68-11,6.25c-3.19,4.54-10.37,10.36-10.37,10.36" transform="translate(-543.94 548.97)"/><path class="cls-8" d="M660.13-539.89s-6,6.5-6.38,10.82c-0.45,5.5-3.69,14.05-3.69,14.05" transform="translate(-543.94 548.97)"/></svg>