<svg id="Layer_1" data-name="Layer 1" xmlns="http://www.w3.org/2000/svg" viewBox="0 0 116 150.6"><defs><style>.cls-1{fill:#be1e2d;}.cls-2{fill:#991727;}.cls-3{fill:#c9761c;}.cls-4{fill:#721d72;}.cls-5{fill:#ffcb9d;}.cls-6{fill:#92278f;}.cls-7{fill:#fbb040;}.cls-8{fill:#00aeef;}.cls-9{fill:#f7941e;}.cls-10{fill:#939598;}.cls-11{fill:#808285;}.cls-12{fill:#00a79d;opacity:0.43;}.cls-13{fill:#18567f;}.cls-14{fill:#1c75bc;}.cls-15{fill:#fff;opacity:0.31;}.cls-16{fill:#f6921e;}.cls-17{fill:#ffe461;}.cls-18{fill:#ed7c08;}.cls-19{fill:#fbbb40;}.cls-20{fill:#d1d3d4;}.cls-21{fill:#84c341;}</style></defs><title>nino4</title><path id="_Path_" data-name="&lt;Path&gt;" class="cls-1" d="M-731,99.9l-0.29,3.16s-22,12-27.93-3.09Z" transform="translate(787.28 38.5)"/><path id="_Path_2" data-name="&lt;Path&gt;" class="cls-2" d="M-722.39,73.38s-14.23.68-10.07,15.33c0,0-5.08,6.23-12.39,2.32,0,0-5.35-28.23,17.29-34.84l7.43,1,5.25,6.16Z" transform="translate(787.28 38.5)"/><path id="_Path_3" data-name="&lt;Path&gt;" class="cls-3" d="M-732.7,87.79S-728.38,92-731,99.9c0,0-17.54,12.38-28.22.07,0,0,1-7.52,14.4-8.94Z" transform="translate(787.28 38.5)"/><path id="_Path_4" data-name="&lt;Path&gt;" class="cls-1" d="M-757.84,97.4l-1.82,3.15s-28.64,2-27.59-16.54Z" transform="translate(787.28 38.5)"/><path id="_Path_5" data-name="&lt;Path&gt;" class="cls-4" d="M-717.45,25.44s-22.89,8.19-29-7.8l-6.13,4.49s8.79,19.5,34.88,15.1C-717.7,37.23-713.86,30.22-717.45,25.44Z" transform="translate(787.28 38.5)"/><ellipse id="_Path_6" data-name="&lt;Path&gt;" class="cls-5" cx="-752.09" cy="15.51" rx="7.77" ry="6.93" transform="translate(675.75 -340.41) rotate(-30.44)"/><path id="_Path_7" data-name="&lt;Path&gt;" class="cls-1" d="M-736.52,74.35s34.16,14.35,37.4-16.5l-32.43-.56Z" transform="translate(787.28 38.5)"/><path id="_Path_8" data-name="&lt;Path&gt;" class="cls-6" d="M-720.73,21.07s-23.89-4.54-21.05-21.42l-7.56.77s-2.31,21.26,22.43,30.69C-726.91,31.11-720,27-720.73,21.07Z" transform="translate(787.28 38.5)"/><path id="_Path_9" data-name="&lt;Path&gt;" class="cls-6" d="M-718.36,18s-14.81,17.64-15,35.6c0,0,28.09,20.76,35.5,4.1,0.42-.95,2.94-33.68,2.94-33.68S-716.62,15.72-718.36,18Z" transform="translate(787.28 38.5)"/><circle id="_Path_10" data-name="&lt;Path&gt;" class="cls-5" cx="87.72" cy="37.69" r="25.91"/><ellipse id="_Path_11" data-name="&lt;Path&gt;" class="cls-5" cx="41.72" cy="33.45" rx="7.77" ry="6.93"/><path id="_Path_12" data-name="&lt;Path&gt;" class="cls-7" d="M-706.5,24.38s-3-6.58-1.64-12.25,13.73-15.74,3.86-20.06c0,0-5.25.51-5.46,7.34L-714.16-2s5-7.49,3.79-11.28-2.77-9.42-2.77-9.42-6.05-10.74,6.76-15.78c0,0-.9,8.4,4.17,10.92,0,0-3.13-6.3,2.65-9,0,0-.32,6.93,3.15,8.4,0,0,.74-6.3,3.47-6.51,0,0-1.69,3,1.95,7.14s18.85,4.41,19.69,24.05S-693,35.58-706.5,24.38Z" transform="translate(787.28 38.5)"/><path id="_Path_13" data-name="&lt;Path&gt;" class="cls-4" d="M-726.91,31.11s18,9.57,22.5,2.29c0,0-.89,11.38-23.75.22Z" transform="translate(787.28 38.5)"/><path id="_Path_14" data-name="&lt;Path&gt;" class="cls-1" d="M-735,74.91s-16.29-7.06-19,10.17c0,0-8.26,4.06-14-3.5,0,0,7.9-31.94,34.62-28l7.25,4.59,2.52,8.92Z" transform="translate(787.28 38.5)"/><ellipse id="_Path_15" data-name="&lt;Path&gt;" class="cls-8" cx="-709.39" cy="-0.81" rx="6.83" ry="4.88" transform="translate(215.05 -658.31) rotate(-78.92)"/><path id="_Path_16" data-name="&lt;Path&gt;" class="cls-9" d="M-753.8,84s2.47,6.46-4,13.39c0,0-24.16,4.51-29.41-13.39,0,0,4.62-7.36,19.25-2.43Z" transform="translate(787.28 38.5)"/><path id="_Path_17" data-name="&lt;Path&gt;" class="cls-10" d="M-701.87,69.69l17.12-4.62a5.06,5.06,0,0,0,5-5V30.23a5.06,5.06,0,0,0-5-5l-17.12-2.52a5.06,5.06,0,0,0-5,5V64.65A5.06,5.06,0,0,0-701.87,69.69Z" transform="translate(787.28 38.5)"/><path id="_Path_18" data-name="&lt;Path&gt;" class="cls-11" d="M-675.69,61.86c0.19,0.67-1.58,7-27.26,7.83C-703,69.69-682.38,38.51-675.69,61.86Z" transform="translate(787.28 38.5)"/><path id="_Path_19" data-name="&lt;Path&gt;" class="cls-12" d="M-716.84,1.4L-732.32.14s7.14-38.73,25.94-38.64,25,14.9,25,14.9-24.16,1.13-25.52,12.38S-716.84,1.4-716.84,1.4Z" transform="translate(787.28 38.5)"/><ellipse id="_Path_20" data-name="&lt;Path&gt;" class="cls-13" cx="-705.83" cy="-0.35" rx="10.5" ry="8.68" transform="translate(217.47 -654.45) rotate(-78.92)"/><path id="_Path_21" data-name="&lt;Path&gt;" class="cls-13" d="M-702.7-9.25s8.25-15.62,25.39-9.8c0,0,1-5.74-12.7-7.66,0,0-11.83-.89-20.26,16Z" transform="translate(787.28 38.5)"/><ellipse id="_Path_22" data-name="&lt;Path&gt;" class="cls-14" cx="-708.32" cy="-0.77" rx="10.5" ry="8.68" transform="translate(215.88 -657.23) rotate(-78.92)"/><ellipse id="_Path_23" data-name="&lt;Path&gt;" class="cls-8" cx="-711.87" cy="-1.23" rx="6.83" ry="4.88" transform="translate(213.45 -661.09) rotate(-78.92)"/><path id="_Path_24" data-name="&lt;Path&gt;" class="cls-15" d="M-693.78-26.22s-28.07.53-26.9,27.31l-8-.65S-723-38.3-693.78-26.22Z" transform="translate(787.28 38.5)"/><polygon class="cls-16" points="107.32 123.26 107.38 142.22 102.99 138.74 100.13 150.6 97.21 138.75 92.84 142.26 92.78 123.31 87.46 127.58 87.38 99.95 100.02 109.98 112.59 99.88 112.67 127.51 107.32 123.26"/><polygon class="cls-17" points="105.78 118.9 105.83 134.31 102.36 131.48 100.1 141.13 97.79 131.49 94.34 134.35 94.3 118.93 90.1 122.41 90.03 99.95 100.01 108.1 109.94 99.89 110 122.35 105.78 118.9"/><ellipse class="cls-16" cx="-687.29" cy="61.42" rx="12.6" ry="10.07" transform="matrix(1, 0, 0, 1, 787.1, 36.54)"/><polygon class="cls-18" points="107.38 142.22 102.99 138.74 100.13 150.6 100.12 150.56 100 109.98 100.02 109.98 112.59 99.88 112.67 127.51 107.32 123.26 107.38 142.22"/><polygon class="cls-19" points="105.83 134.31 102.36 131.48 100.1 141.13 100.09 141.09 100 108.09 100.01 108.1 109.94 99.89 110 122.35 105.78 118.9 105.83 134.31"/><path class="cls-18" d="M-687.26,71.49h0l-0.06-20.13h0c7,0,12.62,4.47,12.63,10S-680.3,71.47-687.26,71.49Z" transform="translate(787.28 38.5)"/><path id="_Path_25" data-name="&lt;Path&gt;" class="cls-20" d="M-695.81,67.49l17.12-4.62a5.06,5.06,0,0,0,5-5V28a5.06,5.06,0,0,0-5-5l-17.12-2.52a5.06,5.06,0,0,0-5,5V62.45A5.06,5.06,0,0,0-695.81,67.49Z" transform="translate(787.28 38.5)"/><rect id="_Rectangle_" data-name="&lt;Rectangle&gt;" class="cls-21" x="-695.5" y="27.76" width="18.2" height="3.35" rx="1.67" ry="1.67" transform="translate(-586.08 58.86) rotate(-176.79)"/></svg>