<svg id="Layer_1" data-name="Layer 1" xmlns="http://www.w3.org/2000/svg" viewBox="0 0 84 107.64"><defs><style>.cls-1{fill:#f6921e;}.cls-2{fill:#ffe461;}.cls-3{fill:#ed7c08;}.cls-4{fill:#fbbb40;}.cls-5{fill:#d19e0f;}.cls-6{fill:#f3b900;}.cls-7{fill:#4d4d4d;}.cls-11,.cls-8{fill:#333;}.cls-10,.cls-8{opacity:0.22;}.cls-9{fill:#fff;opacity:0.35;}</style></defs><title>robot2</title><polygon class="cls-1" points="42.24 88.17 47.89 103.16 50.25 99.11 56.03 107.64 54.75 97.42 59.2 98.9 53.55 83.91 58.97 85.71 50.74 63.86 43.93 75.52 31.13 71.25 39.36 93.09 42.24 88.17"/><polygon class="cls-2" points="42.13 84.26 46.72 96.45 48.56 93.19 53.21 100.15 52.11 91.85 55.65 93.09 51.06 80.9 55.36 82.41 48.67 64.64 43.37 74.03 33.2 70.47 39.89 88.23 42.13 84.26"/><ellipse class="cls-1" cx="-446.24" cy="1964.74" rx="10.47" ry="8.51" transform="translate(-233.96 -1928.38) rotate(-20.64)"/><polygon class="cls-3" points="47.89 103.16 50.25 99.11 56.03 107.64 56.03 107.61 43.94 75.51 43.93 75.52 31.13 71.25 39.36 93.09 42.24 88.17 47.89 103.16"/><polygon class="cls-4" points="46.72 96.45 48.56 93.19 53.21 100.15 53.21 100.11 43.38 74.02 43.37 74.03 33.2 70.47 39.89 88.23 42.13 84.26 46.72 96.45"/><path class="cls-3" d="M-443.24,1972.7h0l-6-15.92h0c-5.41,2-8.46,7.26-6.8,11.65S-448.66,1974.74-443.24,1972.7Z" transform="translate(487.18 -1897.19)"/><path class="cls-5" d="M-408.17,1947.19a8.39,8.39,0,0,1,4.44,4.71,8.39,8.39,0,0,1-.19,6.47l-4.44-2a3.55,3.55,0,0,0,.08-2.74,3.56,3.56,0,0,0-1.88-2,3.59,3.59,0,0,0-4.74,1.8,3.57,3.57,0,0,0-.08,2.74,3.56,3.56,0,0,0,1.88,2l-2,4.44a8.39,8.39,0,0,1-4.44-4.71,8.39,8.39,0,0,1,.19-6.47,8.38,8.38,0,0,1,1.8-2.58,8.5,8.5,0,0,1,5.66-2.4A8.34,8.34,0,0,1-408.17,1947.19Z" transform="translate(487.18 -1897.19)"/><path class="cls-6" d="M-411.89,1946.45h0a8.5,8.5,0,0,0-5.66,2.4l-0.07,0a22,22,0,0,0-2-4v0a22,22,0,0,0-22-9.91l-0.54.1-0.27.05a14.08,14.08,0,0,0-4.64-5.18,28.58,28.58,0,0,1,3.71-1h0a27.53,27.53,0,0,1,2.81-.38,27.56,27.56,0,0,1,3.44-.08,28.26,28.26,0,0,1,2.85.25,28.28,28.28,0,0,1,3.37.68,27.8,27.8,0,0,1,2.72.88,27.73,27.73,0,0,1,3.13,1.41,28.25,28.25,0,0,1,2.46,1.45,28,28,0,0,1,2.74,2.06,27,27,0,0,1,2.08,2,27.16,27.16,0,0,1,2.22,2.62q0.78,1,1.46,2.16l0.13,0.22A27.94,27.94,0,0,1-411.89,1946.45Z" transform="translate(487.18 -1897.19)"/><path class="cls-6" d="M-441.77,1936.69l10.5,27.64-26.51,10.07-10.5-27.64a14.49,14.49,0,0,1-.51-1.62,14.06,14.06,0,0,1,0-7,14.18,14.18,0,0,1,1.2-3.1,14.12,14.12,0,0,0,10,0,14.12,14.12,0,0,0,7.5-6.62,14.81,14.81,0,0,1,1.39.6,14.38,14.38,0,0,1,1.57.91q0.54,0.37,1.05.78a14,14,0,0,1,3.59,4.4A14.5,14.5,0,0,1-441.77,1936.69Z" transform="translate(487.18 -1897.19)"/><path class="cls-6" d="M-459.6,1903.25l7,18.3-5.87,2.23-5.81,2.21-5.87,2.23-7-18.3a9.39,9.39,0,0,1,5.44-12.11A9.39,9.39,0,0,1-459.6,1903.25Z" transform="translate(487.18 -1897.19)"/><path class="cls-5" d="M-450.06,1928.45a14.12,14.12,0,0,1-7.5,6.62,14.12,14.12,0,0,1-10,0,14.1,14.1,0,0,1,4.71-5.2,14.19,14.19,0,0,1,2.78-1.42,14.19,14.19,0,0,1,3-.78A14.1,14.1,0,0,1-450.06,1928.45Z" transform="translate(487.18 -1897.19)"/><path class="cls-6" d="M-458.51,1923.78l1.48,3.91a14.19,14.19,0,0,0-3,.78,14.19,14.19,0,0,0-2.78,1.42l-1.48-3.91Z" transform="translate(487.18 -1897.19)"/><path class="cls-6" d="M-468.75,1938.19a14.05,14.05,0,0,0,0,7l-0.23.14-0.47.29a22,22,0,0,0-9.91,22,0.08,0.08,0,0,0,0,0,22,22,0,0,0,1.15,4.27l-0.07,0h0a8.47,8.47,0,0,0-5.83,2h0a27.94,27.94,0,0,1-1.26-4.54l0-.25q-0.23-1.29-.34-2.58a27.14,27.14,0,0,1-.08-3.43,26.93,26.93,0,0,1,.25-2.85,28,28,0,0,1,.68-3.36,28.3,28.3,0,0,1,.88-2.72,27.76,27.76,0,0,1,1.41-3.13,27.82,27.82,0,0,1,1.45-2.46,28.28,28.28,0,0,1,2.06-2.75,28.27,28.27,0,0,1,2-2.08,27.57,27.57,0,0,1,2.62-2.22,27.54,27.54,0,0,1,2.36-1.58h0A28.58,28.58,0,0,1-468.75,1938.19Z" transform="translate(487.18 -1897.19)"/><path class="cls-5" d="M-475.25,1972.67a8.4,8.4,0,0,1,4.44,4.71,8.4,8.4,0,0,1-.19,6.47l-4.44-2a3.55,3.55,0,0,0,.08-2.74,3.56,3.56,0,0,0-1.88-2,3.59,3.59,0,0,0-4.74,1.8,3.56,3.56,0,0,0-.08,2.74,3.55,3.55,0,0,0,1.88,2l-2,4.44a8.4,8.4,0,0,1-4.44-4.71,8.4,8.4,0,0,1,.19-6.47,8.37,8.37,0,0,1,2.29-3,8.47,8.47,0,0,1,5.83-2A8.37,8.37,0,0,1-475.25,1972.67Z" transform="translate(487.18 -1897.19)"/><rect class="cls-7" x="-463.31" y="1906.62" width="2.7" height="7.03" transform="translate(-221.27 -1936.74) rotate(-20.8)"/><rect class="cls-7" x="-472.16" y="1909.98" width="2.7" height="7.03" transform="translate(-223.04 -1939.66) rotate(-20.8)"/><rect class="cls-7" x="-473.66" y="1916.7" width="18.78" height="1.35" transform="translate(-223.99 -1937.08) rotate(-20.8)"/><path class="cls-8" d="M-479.3,1968.2l-6.11,1.16a28.12,28.12,0,0,1-.39-2.84l6.19-.53A21.89,21.89,0,0,0-479.3,1968.2Zm-0.37-4.88-6.21-.23a28.25,28.25,0,0,1,.25-2.85l6.16,0.86A21.87,21.87,0,0,0-479.67,1963.32Zm0.73-4.84-6-1.6a28.49,28.49,0,0,1,.88-2.72l5.82,2.2A22.22,22.22,0,0,0-478.94,1958.48Zm1.78-4.57-5.51-2.89a28.48,28.48,0,0,1,1.45-2.46L-476,1952A22.12,22.12,0,0,0-477.16,1953.91Zm2.74-4.06-4.73-4a28.25,28.25,0,0,1,2-2.08l4.3,4.49A21.94,21.94,0,0,0-474.42,1949.85Zm3.57-3.35-3.71-5a28.1,28.1,0,0,1,2.38-1.59l3.18,5.34A21.89,21.89,0,0,0-470.84,1946.51Z" transform="translate(487.18 -1897.19)"/><path class="cls-8" d="M-420.53,1943.55l5-3.71a28.09,28.09,0,0,1,1.59,2.38l-5.34,3.18A21.93,21.93,0,0,0-420.53,1943.55Zm-3.34-3.57,4-4.73a28.25,28.25,0,0,1,2.08,2l-4.49,4.3A21.9,21.9,0,0,0-423.88,1940Zm-4.06-2.74,2.89-5.51a28.5,28.5,0,0,1,2.46,1.45l-3.43,5.19A22.25,22.25,0,0,0-427.94,1937.24Zm-4.57-1.78,1.6-6a28.5,28.5,0,0,1,2.72.88l-2.2,5.82A22.12,22.12,0,0,0-432.5,1935.46Zm-4.84-.73,0.23-6.21a28.25,28.25,0,0,1,2.85.25l-0.86,6.16A22,22,0,0,0-437.35,1934.73Zm-4.88.37-1.16-6.11a28.1,28.1,0,0,1,2.84-.39l0.53,6.19A21.89,21.89,0,0,0-442.23,1935.1Z" transform="translate(487.18 -1897.19)"/><rect class="cls-8" x="-464.18" y="1924.82" width="6.22" height="1.98" transform="translate(-226.78 -1935.4) rotate(-20.8)"/><ellipse class="cls-9" cx="-473.04" cy="1903.61" rx="3.92" ry="1.89" transform="translate(-1465.31 -1281.49) rotate(-62.91)"/><path class="cls-9" d="M-446.05,1930.74L-458,1973.92l-1.79-4.71,11.08-40.17a14.38,14.38,0,0,1,1.57.91Q-446.56,1930.33-446.05,1930.74Z" transform="translate(487.18 -1897.19)"/><polygon class="cls-9" points="49.72 50.85 51.51 55.55 55.91 67.15 43.97 71.68 49.72 50.85"/><rect class="cls-5" x="-461.16" y="1949.4" width="18.92" height="2.16" transform="translate(-234.93 -1930.46) rotate(-20.8)"/><rect class="cls-5" x="-459.46" y="1953.87" width="18.92" height="2.16" transform="translate(-236.41 -1929.57) rotate(-20.8)"/><rect class="cls-5" x="-457.77" y="1958.33" width="18.92" height="2.16" transform="translate(-237.88 -1928.67) rotate(-20.8)"/><rect class="cls-5" x="-456.07" y="1962.8" width="18.92" height="2.16" transform="translate(-239.36 -1927.78) rotate(-20.8)"/><g class="cls-10"><path class="cls-11" d="M-460.43,1949.18a1.36,1.36,0,0,1-1,0,1.36,1.36,0,0,1-.71-0.75,1.36,1.36,0,0,1,0-1,1.36,1.36,0,0,1,.75-0.71,1.36,1.36,0,0,1,1,0,1.36,1.36,0,0,1,.71.75,1.36,1.36,0,0,1,0,1A1.36,1.36,0,0,1-460.43,1949.18Z" transform="translate(487.18 -1897.19)"/><path class="cls-11" d="M-452.57,1944.74a1.35,1.35,0,0,1,.78-1.74h0a1.35,1.35,0,0,1,1.75.78h0a1.35,1.35,0,0,1-.79,1.74h0A1.35,1.35,0,0,1-452.57,1944.74Zm-4.8,1.82a1.35,1.35,0,0,1,.78-1.74h0a1.35,1.35,0,0,1,1.74.78h0a1.35,1.35,0,0,1-.78,1.74h0A1.35,1.35,0,0,1-457.38,1946.57Z" transform="translate(487.18 -1897.19)"/><path class="cls-11" d="M-446,1943.7a1.36,1.36,0,0,1-1,0,1.36,1.36,0,0,1-.71-0.75,1.35,1.35,0,0,1,0-1,1.37,1.37,0,0,1,.75-0.71,1.36,1.36,0,0,1,1,0,1.36,1.36,0,0,1,.71.75,1.36,1.36,0,0,1,0,1A1.36,1.36,0,0,1-446,1943.7Z" transform="translate(487.18 -1897.19)"/></g><g class="cls-10"><path class="cls-11" d="M-462.16,1944.63a1.36,1.36,0,0,1-1,0,1.36,1.36,0,0,1-.71-0.75,1.36,1.36,0,0,1,0-1,1.36,1.36,0,0,1,.75-0.71,1.36,1.36,0,0,1,1,0,1.36,1.36,0,0,1,.71.75,1.36,1.36,0,0,1,0,1A1.36,1.36,0,0,1-462.16,1944.63Z" transform="translate(487.18 -1897.19)"/><path class="cls-11" d="M-454.3,1940.2a1.35,1.35,0,0,1,.78-1.74h0a1.35,1.35,0,0,1,1.75.78h0a1.35,1.35,0,0,1-.79,1.74h0A1.35,1.35,0,0,1-454.3,1940.2Zm-4.8,1.82a1.35,1.35,0,0,1,.78-1.74h0a1.35,1.35,0,0,1,1.74.78h0a1.35,1.35,0,0,1-.78,1.74h0A1.35,1.35,0,0,1-459.1,1942Z" transform="translate(487.18 -1897.19)"/><path class="cls-11" d="M-447.76,1939.15a1.36,1.36,0,0,1-1,0,1.36,1.36,0,0,1-.71-0.75,1.35,1.35,0,0,1,0-1,1.37,1.37,0,0,1,.75-0.71,1.36,1.36,0,0,1,1,0,1.36,1.36,0,0,1,.71.75,1.36,1.36,0,0,1,0,1A1.36,1.36,0,0,1-447.76,1939.15Z" transform="translate(487.18 -1897.19)"/></g></svg>